<?xml version="1.0" encoding="UTF-8" standalone="no"?>
<!DOCTYPE svg PUBLIC "-//W3C//DTD SVG 1.1//EN"
 "http://www.w3.org/Graphics/SVG/1.1/DTD/svg11.dtd">
<!-- Generated by graphviz version 2.36.0 (20140111.2315)
 -->
<!-- Title: /home/travis/build/robotology&#45;playground/human&#45;dynamics&#45;estimation/human&#45;forces&#45;provider/include/HumanForcesProvider.h Pages: 1 -->
<svg width="683pt" height="240pt"
 viewBox="0.00 0.00 683.02 240.00" xmlns="http://www.w3.org/2000/svg" xmlns:xlink="http://www.w3.org/1999/xlink">
<g id="graph0" class="graph" transform="scale(1 1) rotate(0) translate(4 236)">
<title>/home/travis/build/robotology&#45;playground/human&#45;dynamics&#45;estimation/human&#45;forces&#45;provider/include/HumanForcesProvider.h</title>
<!-- Node1 -->
<g id="node1" class="node"><title>Node1</title>
<polygon fill="#bfbfbf" stroke="black" points="278,-168.5 278,-231.5 428,-231.5 428,-168.5 278,-168.5"/>
<text text-anchor="start" x="286" y="-219.5" font-family="Helvetica,sans-Serif" font-size="10.00">/home/travis/build</text>
<text text-anchor="start" x="286" y="-208.5" font-family="Helvetica,sans-Serif" font-size="10.00">/robotology&#45;playground</text>
<text text-anchor="start" x="286" y="-197.5" font-family="Helvetica,sans-Serif" font-size="10.00">/human&#45;dynamics&#45;estimation</text>
<text text-anchor="start" x="286" y="-186.5" font-family="Helvetica,sans-Serif" font-size="10.00">/human&#45;forces&#45;provider/include</text>
<text text-anchor="middle" x="353" y="-175.5" font-family="Helvetica,sans-Serif" font-size="10.00">/HumanForcesProvider.h</text>
</g>
<!-- Node2 -->
<g id="node2" class="node"><title>Node2</title>
<polygon fill="none" stroke="#bfbfbf" points="-0.5,-112.5 -0.5,-131.5 104.5,-131.5 104.5,-112.5 -0.5,-112.5"/>
<text text-anchor="middle" x="52" y="-119.5" font-family="Helvetica,sans-Serif" font-size="10.00">yarp/os/RFModule.h</text>
</g>
<!-- Node1&#45;&gt;Node2 -->
<g id="edge1" class="edge"><title>Node1&#45;&gt;Node2</title>
<path fill="none" stroke="midnightblue" d="M277.821,-180.018C220.436,-165.529 143.365,-146.069 95.7256,-134.04"/>
<polygon fill="midnightblue" stroke="midnightblue" points="96.5769,-130.646 86.0243,-131.591 94.8632,-137.433 96.5769,-130.646"/>
</g>
<!-- Node3 -->
<g id="node3" class="node"><title>Node3</title>
<polygon fill="none" stroke="#bfbfbf" points="122.5,-112.5 122.5,-131.5 237.5,-131.5 237.5,-112.5 122.5,-112.5"/>
<text text-anchor="middle" x="180" y="-119.5" font-family="Helvetica,sans-Serif" font-size="10.00">yarp/os/BufferedPort.h</text>
</g>
<!-- Node1&#45;&gt;Node3 -->
<g id="edge2" class="edge"><title>Node1&#45;&gt;Node3</title>
<path fill="none" stroke="midnightblue" d="M283.133,-168.307C257.183,-156.907 229.158,-144.595 208.88,-135.687"/>
<polygon fill="midnightblue" stroke="midnightblue" points="210.155,-132.424 199.592,-131.607 207.339,-138.833 210.155,-132.424"/>
</g>
<!-- Node4 -->
<g id="node4" class="node"><title>Node4</title>
<polygon fill="none" stroke="#bfbfbf" points="255.5,-112.5 255.5,-131.5 366.5,-131.5 366.5,-112.5 255.5,-112.5"/>
<text text-anchor="middle" x="311" y="-119.5" font-family="Helvetica,sans-Serif" font-size="10.00">yarp/dev/PolyDriver.h</text>
</g>
<!-- Node1&#45;&gt;Node4 -->
<g id="edge3" class="edge"><title>Node1&#45;&gt;Node4</title>
<path fill="none" stroke="midnightblue" d="M335.917,-168.088C330.75,-158.739 325.256,-148.796 320.745,-140.633"/>
<polygon fill="midnightblue" stroke="midnightblue" points="323.718,-138.778 315.818,-131.718 317.591,-142.164 323.718,-138.778"/>
</g>
<!-- Node5 -->
<g id="node5" class="node"><title>Node5</title>
<polygon fill="none" stroke="#bfbfbf" points="349.5,-56.5 349.5,-75.5 440.5,-75.5 440.5,-56.5 349.5,-56.5"/>
<text text-anchor="middle" x="395" y="-63.5" font-family="Helvetica,sans-Serif" font-size="10.00">yarp/sig/Vector.h</text>
</g>
<!-- Node1&#45;&gt;Node5 -->
<g id="edge4" class="edge"><title>Node1&#45;&gt;Node5</title>
<path fill="none" stroke="midnightblue" d="M363.197,-168.353C366.954,-156.954 371.216,-143.901 375,-132 379.976,-116.353 385.447,-98.5253 389.408,-85.5029"/>
<polygon fill="midnightblue" stroke="midnightblue" points="392.783,-86.4331 392.335,-75.8478 386.084,-84.402 392.783,-86.4331"/>
</g>
<!-- Node6 -->
<g id="node6" class="node"><title>Node6</title>
<g id="a_node6"><a xlink:href="autogenerated_2include_2thrifts_2_human_forces_8h.html" target="_top" xlink:title="thrifts/HumanForces.h">
<polygon fill="none" stroke="black" points="555,-112.5 555,-131.5 669,-131.5 669,-112.5 555,-112.5"/>
<text text-anchor="middle" x="612" y="-119.5" font-family="Helvetica,sans-Serif" font-size="10.00">thrifts/HumanForces.h</text>
</a>
</g>
</g>
<!-- Node1&#45;&gt;Node6 -->
<g id="edge5" class="edge"><title>Node1&#45;&gt;Node6</title>
<path fill="none" stroke="midnightblue" d="M428.261,-176.916C475.7,-162.995 534.99,-145.598 573.171,-134.394"/>
<polygon fill="midnightblue" stroke="midnightblue" points="574.268,-137.72 582.878,-131.545 572.297,-131.003 574.268,-137.72"/>
</g>
<!-- Node10 -->
<g id="node10" class="node"><title>Node10</title>
<g id="a_node10"><a xlink:href="autogenerated_2include_2thrifts_2_human_state_8h.html" target="_top" xlink:title="thrifts/HumanState.h">
<polygon fill="none" stroke="black" points="423.5,-112.5 423.5,-131.5 530.5,-131.5 530.5,-112.5 423.5,-112.5"/>
<text text-anchor="middle" x="477" y="-119.5" font-family="Helvetica,sans-Serif" font-size="10.00">thrifts/HumanState.h</text>
</a>
</g>
</g>
<!-- Node1&#45;&gt;Node10 -->
<g id="edge11" class="edge"><title>Node1&#45;&gt;Node10</title>
<path fill="none" stroke="midnightblue" d="M403.078,-168.307C420.833,-157.425 439.942,-145.713 454.284,-136.923"/>
<polygon fill="midnightblue" stroke="midnightblue" points="456.26,-139.816 462.957,-131.607 452.602,-133.848 456.26,-139.816"/>
</g>
<!-- Node7 -->
<g id="node7" class="node"><title>Node7</title>
<polygon fill="none" stroke="#bfbfbf" points="581,-0.5 581,-19.5 661,-19.5 661,-0.5 581,-0.5"/>
<text text-anchor="middle" x="621" y="-7.5" font-family="Helvetica,sans-Serif" font-size="10.00">yarp/os/Wire.h</text>
</g>
<!-- Node6&#45;&gt;Node7 -->
<g id="edge6" class="edge"><title>Node6&#45;&gt;Node7</title>
<path fill="none" stroke="midnightblue" d="M631.296,-112.48C645.429,-105.081 663.557,-92.887 672,-76 681.647,-56.7058 662.359,-37.6485 644.803,-25.2085"/>
<polygon fill="midnightblue" stroke="midnightblue" points="646.723,-22.2824 636.458,-19.6611 642.848,-28.1119 646.723,-22.2824"/>
</g>
<!-- Node8 -->
<g id="node8" class="node"><title>Node8</title>
<polygon fill="none" stroke="#bfbfbf" points="443,-0.5 443,-19.5 563,-19.5 563,-0.5 443,-0.5"/>
<text text-anchor="middle" x="503" y="-7.5" font-family="Helvetica,sans-Serif" font-size="10.00">yarp/os/idl/WireTypes.h</text>
</g>
<!-- Node6&#45;&gt;Node8 -->
<g id="edge7" class="edge"><title>Node6&#45;&gt;Node8</title>
<path fill="none" stroke="midnightblue" d="M602.266,-112.212C592.445,-103.268 576.927,-88.9201 564,-76 547.684,-59.6922 529.687,-40.3378 517.499,-27.0137"/>
<polygon fill="midnightblue" stroke="midnightblue" points="520.048,-24.6151 510.727,-19.5781 514.873,-29.3283 520.048,-24.6151"/>
</g>
<!-- Node9 -->
<g id="node9" class="node"><title>Node9</title>
<g id="a_node9"><a xlink:href="autogenerated_2include_2thrifts_2_force6_d_8h.html" target="_top" xlink:title="thrifts/Force6D.h">
<polygon fill="none" stroke="black" points="573,-56.5 573,-75.5 663,-75.5 663,-56.5 573,-56.5"/>
<text text-anchor="middle" x="618" y="-63.5" font-family="Helvetica,sans-Serif" font-size="10.00">thrifts/Force6D.h</text>
</a>
</g>
</g>
<!-- Node6&#45;&gt;Node9 -->
<g id="edge8" class="edge"><title>Node6&#45;&gt;Node9</title>
<path fill="none" stroke="midnightblue" d="M612.991,-112.083C613.786,-104.927 614.929,-94.6353 615.923,-85.6911"/>
<polygon fill="midnightblue" stroke="midnightblue" points="619.402,-86.0765 617.028,-75.7511 612.445,-85.3034 619.402,-86.0765"/>
</g>
<!-- Node9&#45;&gt;Node7 -->
<g id="edge9" class="edge"><title>Node9&#45;&gt;Node7</title>
<path fill="none" stroke="midnightblue" d="M618.495,-56.083C618.889,-49.0059 619.452,-38.8611 619.945,-29.9865"/>
<polygon fill="midnightblue" stroke="midnightblue" points="623.454,-29.9299 620.514,-19.7511 616.464,-29.5415 623.454,-29.9299"/>
</g>
<!-- Node9&#45;&gt;Node8 -->
<g id="edge10" class="edge"><title>Node9&#45;&gt;Node8</title>
<path fill="none" stroke="midnightblue" d="M599.778,-56.4435C581.104,-47.6751 551.844,-33.9355 530.383,-23.8579"/>
<polygon fill="midnightblue" stroke="midnightblue" points="531.676,-20.5988 521.137,-19.5164 528.701,-26.935 531.676,-20.5988"/>
</g>
<!-- Node10&#45;&gt;Node5 -->
<g id="edge14" class="edge"><title>Node10&#45;&gt;Node5</title>
<path fill="none" stroke="midnightblue" d="M463.825,-112.324C451.153,-103.979 431.767,-91.2122 416.794,-81.3524"/>
<polygon fill="midnightblue" stroke="midnightblue" points="418.419,-78.2313 408.142,-75.6545 414.569,-84.0776 418.419,-78.2313"/>
</g>
<!-- Node10&#45;&gt;Node7 -->
<g id="edge12" class="edge"><title>Node10&#45;&gt;Node7</title>
<path fill="none" stroke="midnightblue" d="M488.299,-112.368C512.8,-93.6531 571.057,-49.1509 601.583,-25.8324"/>
<polygon fill="midnightblue" stroke="midnightblue" points="603.931,-28.4432 609.753,-19.5914 599.682,-22.8805 603.931,-28.4432"/>
</g>
<!-- Node10&#45;&gt;Node8 -->
<g id="edge13" class="edge"><title>Node10&#45;&gt;Node8</title>
<path fill="none" stroke="midnightblue" d="M479.04,-112.368C483.236,-94.617 492.915,-53.6664 498.604,-29.5974"/>
<polygon fill="midnightblue" stroke="midnightblue" points="502.075,-30.1284 500.969,-19.5914 495.263,-28.5182 502.075,-30.1284"/>
</g>
</g>
</svg>
