<?xml version="1.0" encoding="UTF-8" standalone="no"?>
<!DOCTYPE svg PUBLIC "-//W3C//DTD SVG 1.1//EN"
 "http://www.w3.org/Graphics/SVG/1.1/DTD/svg11.dtd">
<!-- Generated by graphviz version 2.36.0 (20140111.2315)
 -->
<!-- Title: /home/travis/build/robotology&#45;playground/human&#45;dynamics&#45;estimation/human&#45;forces&#45;provider/src/HumanForcesProvider.cpp Pages: 1 -->
<svg width="2113pt" height="296pt"
 viewBox="0.00 0.00 2113.00 296.00" xmlns="http://www.w3.org/2000/svg" xmlns:xlink="http://www.w3.org/1999/xlink">
<g id="graph0" class="graph" transform="scale(1 1) rotate(0) translate(4 292)">
<title>/home/travis/build/robotology&#45;playground/human&#45;dynamics&#45;estimation/human&#45;forces&#45;provider/src/HumanForcesProvider.cpp</title>
<!-- Node1 -->
<g id="node1" class="node"><title>Node1</title>
<polygon fill="#bfbfbf" stroke="black" points="1065,-224.5 1065,-287.5 1207,-287.5 1207,-224.5 1065,-224.5"/>
<text text-anchor="start" x="1073" y="-275.5" font-family="Helvetica,sans-Serif" font-size="10.00">/home/travis/build</text>
<text text-anchor="start" x="1073" y="-264.5" font-family="Helvetica,sans-Serif" font-size="10.00">/robotology&#45;playground</text>
<text text-anchor="start" x="1073" y="-253.5" font-family="Helvetica,sans-Serif" font-size="10.00">/human&#45;dynamics&#45;estimation</text>
<text text-anchor="start" x="1073" y="-242.5" font-family="Helvetica,sans-Serif" font-size="10.00">/human&#45;forces&#45;provider/src</text>
<text text-anchor="middle" x="1136" y="-231.5" font-family="Helvetica,sans-Serif" font-size="10.00">/HumanForcesProvider.cpp</text>
</g>
<!-- Node2 -->
<g id="node2" class="node"><title>Node2</title>
<g id="a_node2"><a xlink:href="_human_forces_provider_8h.html" target="_top" xlink:title="HumanForcesProvider.h">
<polygon fill="none" stroke="black" points="471,-168.5 471,-187.5 593,-187.5 593,-168.5 471,-168.5"/>
<text text-anchor="middle" x="532" y="-175.5" font-family="Helvetica,sans-Serif" font-size="10.00">HumanForcesProvider.h</text>
</a>
</g>
</g>
<!-- Node1&#45;&gt;Node2 -->
<g id="edge1" class="edge"><title>Node1&#45;&gt;Node2</title>
<path fill="none" stroke="midnightblue" d="M1064.94,-246.058C948.85,-231.451 719.838,-202.635 603.48,-187.994"/>
<polygon fill="midnightblue" stroke="midnightblue" points="603.618,-184.484 593.259,-186.708 602.744,-191.429 603.618,-184.484"/>
</g>
<!-- Node12 -->
<g id="node12" class="node"><title>Node12</title>
<g id="a_node12"><a xlink:href="_force_reader_8h.html" target="_top" xlink:title="ForceReader.h">
<polygon fill="none" stroke="black" points="-0.5,-56.5 -0.5,-75.5 80.5,-75.5 80.5,-56.5 -0.5,-56.5"/>
<text text-anchor="middle" x="40" y="-63.5" font-family="Helvetica,sans-Serif" font-size="10.00">ForceReader.h</text>
</a>
</g>
</g>
<!-- Node1&#45;&gt;Node12 -->
<g id="edge16" class="edge"><title>Node1&#45;&gt;Node12</title>
<path fill="none" stroke="midnightblue" d="M1064.8,-252.987C841.882,-246.342 166.778,-223.482 75,-188 37.8387,-173.633 22.259,-167.909 5,-132 -3.18406,-114.972 9.66106,-96.0028 22.0314,-82.9735"/>
<polygon fill="midnightblue" stroke="midnightblue" points="24.7712,-85.19 29.48,-75.699 19.8803,-80.182 24.7712,-85.19"/>
</g>
<!-- Node13 -->
<g id="node13" class="node"><title>Node13</title>
<g id="a_node13"><a xlink:href="_abstract_force_reader_8h.html" target="_top" xlink:title="AbstractForceReader.h">
<polygon fill="none" stroke="black" points="14,-112.5 14,-131.5 132,-131.5 132,-112.5 14,-112.5"/>
<text text-anchor="middle" x="73" y="-119.5" font-family="Helvetica,sans-Serif" font-size="10.00">AbstractForceReader.h</text>
</a>
</g>
</g>
<!-- Node1&#45;&gt;Node13 -->
<g id="edge17" class="edge"><title>Node1&#45;&gt;Node13</title>
<path fill="none" stroke="midnightblue" d="M1064.71,-255.082C841.676,-254.706 167.579,-248.526 92,-188 78.3981,-177.107 74.1775,-157.039 73.0347,-142.071"/>
<polygon fill="midnightblue" stroke="midnightblue" points="76.5241,-141.719 72.6562,-131.856 69.5289,-141.979 76.5241,-141.719"/>
</g>
<!-- Node14 -->
<g id="node14" class="node"><title>Node14</title>
<g id="a_node14"><a xlink:href="_f_t_force_reader_8h.html" target="_top" xlink:title="FTForceReader.h">
<polygon fill="none" stroke="black" points="101.5,-168.5 101.5,-187.5 194.5,-187.5 194.5,-168.5 101.5,-168.5"/>
<text text-anchor="middle" x="148" y="-175.5" font-family="Helvetica,sans-Serif" font-size="10.00">FTForceReader.h</text>
</a>
</g>
</g>
<!-- Node1&#45;&gt;Node14 -->
<g id="edge20" class="edge"><title>Node1&#45;&gt;Node14</title>
<path fill="none" stroke="midnightblue" d="M1064.98,-252.097C910.339,-245.298 531.433,-226.059 204.899,-188.133"/>
<polygon fill="midnightblue" stroke="midnightblue" points="205.106,-184.634 194.767,-186.948 204.293,-191.586 205.106,-184.634"/>
</g>
<!-- Node15 -->
<g id="node15" class="node"><title>Node15</title>
<g id="a_node15"><a xlink:href="_port_force_reader_8h.html" target="_top" xlink:title="PortForceReader.h">
<polygon fill="none" stroke="black" points="212.5,-168.5 212.5,-187.5 311.5,-187.5 311.5,-168.5 212.5,-168.5"/>
<text text-anchor="middle" x="262" y="-175.5" font-family="Helvetica,sans-Serif" font-size="10.00">PortForceReader.h</text>
</a>
</g>
</g>
<!-- Node1&#45;&gt;Node15 -->
<g id="edge22" class="edge"><title>Node1&#45;&gt;Node15</title>
<path fill="none" stroke="midnightblue" d="M1064.85,-248.813C896.836,-234.203 477.925,-197.776 321.852,-184.205"/>
<polygon fill="midnightblue" stroke="midnightblue" points="321.782,-180.685 311.516,-183.306 321.175,-187.659 321.782,-180.685"/>
</g>
<!-- Node16 -->
<g id="node16" class="node"><title>Node16</title>
<g id="a_node16"><a xlink:href="_frame_transformer_8h.html" target="_top" xlink:title="FrameTransformer.h">
<polygon fill="none" stroke="black" points="876.5,-56.5 876.5,-75.5 981.5,-75.5 981.5,-56.5 876.5,-56.5"/>
<text text-anchor="middle" x="929" y="-63.5" font-family="Helvetica,sans-Serif" font-size="10.00">FrameTransformer.h</text>
</a>
</g>
</g>
<!-- Node1&#45;&gt;Node16 -->
<g id="edge25" class="edge"><title>Node1&#45;&gt;Node16</title>
<path fill="none" stroke="midnightblue" d="M1064.94,-235.474C1031.07,-224.402 990.879,-208.598 958,-188 927.362,-168.806 913.27,-165.218 899,-132 891.837,-115.326 902.605,-96.5263 913.18,-83.4507"/>
<polygon fill="midnightblue" stroke="midnightblue" points="915.955,-85.5936 919.91,-75.7645 910.689,-80.982 915.955,-85.5936"/>
</g>
<!-- Node18 -->
<g id="node18" class="node"><title>Node18</title>
<g id="a_node18"><a xlink:href="_generic_frame_transformer_8h.html" target="_top" xlink:title="GenericFrameTransformer.h">
<polygon fill="none" stroke="black" points="908.5,-112.5 908.5,-131.5 1047.5,-131.5 1047.5,-112.5 908.5,-112.5"/>
<text text-anchor="middle" x="978" y="-119.5" font-family="Helvetica,sans-Serif" font-size="10.00">GenericFrameTransformer.h</text>
</a>
</g>
</g>
<!-- Node1&#45;&gt;Node18 -->
<g id="edge27" class="edge"><title>Node1&#45;&gt;Node18</title>
<path fill="none" stroke="midnightblue" d="M1064.65,-245.647C1029,-236.97 988.902,-220.244 967,-188 957.582,-174.135 962.539,-154.86 968.507,-140.904"/>
<polygon fill="midnightblue" stroke="midnightblue" points="971.687,-142.366 972.84,-131.834 965.371,-139.349 971.687,-142.366"/>
</g>
<!-- Node19 -->
<g id="node19" class="node"><title>Node19</title>
<polygon fill="none" stroke="#bfbfbf" points="1187,-56.5 1187,-75.5 1323,-75.5 1323,-56.5 1187,-56.5"/>
<text text-anchor="middle" x="1255" y="-63.5" font-family="Helvetica,sans-Serif" font-size="10.00">iDynTree/Core/Transform.h</text>
</g>
<!-- Node1&#45;&gt;Node19 -->
<g id="edge43" class="edge"><title>Node1&#45;&gt;Node19</title>
<path fill="none" stroke="midnightblue" d="M1141.3,-224.33C1145.87,-205.983 1154.18,-183.331 1169,-168 1197.8,-138.208 1232.04,-166.496 1255,-132 1263.98,-118.508 1262.88,-99.6987 1260.19,-85.7833"/>
<polygon fill="midnightblue" stroke="midnightblue" points="1263.55,-84.7968 1257.85,-75.8677 1256.74,-86.4042 1263.55,-84.7968"/>
</g>
<!-- Node20 -->
<g id="node20" class="node"><title>Node20</title>
<g id="a_node20"><a xlink:href="_robot_frame_transformer_8h.html" target="_top" xlink:title="RobotFrameTransformer.h">
<polygon fill="none" stroke="black" points="976.5,-168.5 976.5,-187.5 1107.5,-187.5 1107.5,-168.5 976.5,-168.5"/>
<text text-anchor="middle" x="1042" y="-175.5" font-family="Helvetica,sans-Serif" font-size="10.00">RobotFrameTransformer.h</text>
</a>
</g>
</g>
<!-- Node1&#45;&gt;Node20 -->
<g id="edge30" class="edge"><title>Node1&#45;&gt;Node20</title>
<path fill="none" stroke="midnightblue" d="M1098.04,-224.307C1085.17,-213.905 1071.37,-202.743 1060.68,-194.102"/>
<polygon fill="midnightblue" stroke="midnightblue" points="1062.83,-191.339 1052.85,-187.774 1058.43,-196.783 1062.83,-191.339"/>
</g>
<!-- Node22 -->
<g id="node22" class="node"><title>Node22</title>
<polygon fill="none" stroke="#bfbfbf" points="1321,-112.5 1321,-131.5 1479,-131.5 1479,-112.5 1321,-112.5"/>
<text text-anchor="middle" x="1400" y="-119.5" font-family="Helvetica,sans-Serif" font-size="10.00">iDynTree/Core/VectorDynSize.h</text>
</g>
<!-- Node1&#45;&gt;Node22 -->
<g id="edge42" class="edge"><title>Node1&#45;&gt;Node22</title>
<path fill="none" stroke="midnightblue" d="M1149.06,-224.324C1158.74,-205.254 1173.76,-181.816 1194,-168 1215.46,-153.35 1276.47,-141.11 1326.57,-133.111"/>
<polygon fill="midnightblue" stroke="midnightblue" points="1327.41,-136.522 1336.75,-131.519 1326.33,-129.606 1327.41,-136.522"/>
</g>
<!-- Node23 -->
<g id="node23" class="node"><title>Node23</title>
<polygon fill="none" stroke="#bfbfbf" points="1202.5,-168.5 1202.5,-187.5 1309.5,-187.5 1309.5,-168.5 1202.5,-168.5"/>
<text text-anchor="middle" x="1256" y="-175.5" font-family="Helvetica,sans-Serif" font-size="10.00">yarp/os/LogStream.h</text>
</g>
<!-- Node1&#45;&gt;Node23 -->
<g id="edge37" class="edge"><title>Node1&#45;&gt;Node23</title>
<path fill="none" stroke="midnightblue" d="M1184.46,-224.307C1201.48,-213.529 1219.79,-201.936 1233.62,-193.175"/>
<polygon fill="midnightblue" stroke="midnightblue" points="1235.83,-195.914 1242.41,-187.607 1232.09,-190 1235.83,-195.914"/>
</g>
<!-- Node24 -->
<g id="node24" class="node"><title>Node24</title>
<polygon fill="none" stroke="#bfbfbf" points="1327.5,-168.5 1327.5,-187.5 1456.5,-187.5 1456.5,-168.5 1327.5,-168.5"/>
<text text-anchor="middle" x="1392" y="-175.5" font-family="Helvetica,sans-Serif" font-size="10.00">yarp/dev/IAnalogSensor.h</text>
</g>
<!-- Node1&#45;&gt;Node24 -->
<g id="edge38" class="edge"><title>Node1&#45;&gt;Node24</title>
<path fill="none" stroke="midnightblue" d="M1207.31,-233.83C1254.57,-219.799 1314.76,-201.932 1353.34,-190.478"/>
<polygon fill="midnightblue" stroke="midnightblue" points="1354.55,-193.769 1363.14,-187.568 1352.56,-187.059 1354.55,-193.769"/>
</g>
<!-- Node25 -->
<g id="node25" class="node"><title>Node25</title>
<polygon fill="none" stroke="#bfbfbf" points="1475,-168.5 1475,-187.5 1553,-187.5 1553,-168.5 1475,-168.5"/>
<text text-anchor="middle" x="1514" y="-175.5" font-family="Helvetica,sans-Serif" font-size="10.00">yarp/dev/api.h</text>
</g>
<!-- Node1&#45;&gt;Node25 -->
<g id="edge39" class="edge"><title>Node1&#45;&gt;Node25</title>
<path fill="none" stroke="midnightblue" d="M1207.1,-240.705C1282.31,-225.583 1399,-202.122 1464.7,-188.913"/>
<polygon fill="midnightblue" stroke="midnightblue" points="1465.68,-192.286 1474.79,-186.883 1464.3,-185.423 1465.68,-192.286"/>
</g>
<!-- Node26 -->
<g id="node26" class="node"><title>Node26</title>
<polygon fill="none" stroke="#bfbfbf" points="1571,-168.5 1571,-187.5 1681,-187.5 1681,-168.5 1571,-168.5"/>
<text text-anchor="middle" x="1626" y="-175.5" font-family="Helvetica,sans-Serif" font-size="10.00">yarp/dev/IEncoders.h</text>
</g>
<!-- Node1&#45;&gt;Node26 -->
<g id="edge40" class="edge"><title>Node1&#45;&gt;Node26</title>
<path fill="none" stroke="midnightblue" d="M1207.25,-243.949C1302.29,-229.207 1469.21,-203.318 1560.99,-189.084"/>
<polygon fill="midnightblue" stroke="midnightblue" points="1561.64,-192.525 1570.98,-187.533 1560.56,-185.607 1561.64,-192.525"/>
</g>
<!-- Node27 -->
<g id="node27" class="node"><title>Node27</title>
<polygon fill="none" stroke="#bfbfbf" points="1699,-168.5 1699,-187.5 1851,-187.5 1851,-168.5 1699,-168.5"/>
<text text-anchor="middle" x="1775" y="-175.5" font-family="Helvetica,sans-Serif" font-size="10.00">iDynTree/Core/MatrixFixSize.h</text>
</g>
<!-- Node1&#45;&gt;Node27 -->
<g id="edge41" class="edge"><title>Node1&#45;&gt;Node27</title>
<path fill="none" stroke="midnightblue" d="M1207.13,-246.54C1326.7,-232.319 1567.24,-203.71 1693.45,-188.699"/>
<polygon fill="midnightblue" stroke="midnightblue" points="1693.93,-192.167 1703.45,-187.51 1693.11,-185.216 1693.93,-192.167"/>
</g>
<!-- Node28 -->
<g id="node28" class="node"><title>Node28</title>
<polygon fill="none" stroke="#bfbfbf" points="1869.5,-168.5 1869.5,-187.5 2032.5,-187.5 2032.5,-168.5 1869.5,-168.5"/>
<text text-anchor="middle" x="1951" y="-175.5" font-family="Helvetica,sans-Serif" font-size="10.00">iDynTree/ModelIO/ModelLoader.h</text>
</g>
<!-- Node1&#45;&gt;Node28 -->
<g id="edge44" class="edge"><title>Node1&#45;&gt;Node28</title>
<path fill="none" stroke="midnightblue" d="M1207.18,-248.563C1335.19,-236.953 1613.05,-211.604 1858.94,-188.096"/>
<polygon fill="midnightblue" stroke="midnightblue" points="1859.53,-191.556 1869.15,-187.12 1858.86,-184.588 1859.53,-191.556"/>
</g>
<!-- Node29 -->
<g id="node29" class="node"><title>Node29</title>
<polygon fill="none" stroke="#bfbfbf" points="2051,-168.5 2051,-187.5 2105,-187.5 2105,-168.5 2051,-168.5"/>
<text text-anchor="middle" x="2078" y="-175.5" font-family="Helvetica,sans-Serif" font-size="10.00">iostream</text>
</g>
<!-- Node1&#45;&gt;Node29 -->
<g id="edge45" class="edge"><title>Node1&#45;&gt;Node29</title>
<path fill="none" stroke="midnightblue" d="M1207.15,-253.709C1358.82,-250.099 1725.07,-236.804 2040.37,-187.8"/>
<polygon fill="midnightblue" stroke="midnightblue" points="2041.29,-191.2 2050.62,-186.191 2040.2,-184.284 2041.29,-191.2"/>
</g>
<!-- Node3 -->
<g id="node3" class="node"><title>Node3</title>
<polygon fill="none" stroke="#bfbfbf" points="226.5,-112.5 226.5,-131.5 331.5,-131.5 331.5,-112.5 226.5,-112.5"/>
<text text-anchor="middle" x="279" y="-119.5" font-family="Helvetica,sans-Serif" font-size="10.00">yarp/os/RFModule.h</text>
</g>
<!-- Node2&#45;&gt;Node3 -->
<g id="edge2" class="edge"><title>Node2&#45;&gt;Node3</title>
<path fill="none" stroke="midnightblue" d="M491.911,-168.444C447.684,-159.004 376.461,-143.802 328.715,-133.611"/>
<polygon fill="midnightblue" stroke="midnightblue" points="329.411,-130.181 318.901,-131.516 327.95,-137.027 329.411,-130.181"/>
</g>
<!-- Node4 -->
<g id="node4" class="node"><title>Node4</title>
<polygon fill="none" stroke="#bfbfbf" points="736.5,-112.5 736.5,-131.5 851.5,-131.5 851.5,-112.5 736.5,-112.5"/>
<text text-anchor="middle" x="794" y="-119.5" font-family="Helvetica,sans-Serif" font-size="10.00">yarp/os/BufferedPort.h</text>
</g>
<!-- Node2&#45;&gt;Node4 -->
<g id="edge3" class="edge"><title>Node2&#45;&gt;Node4</title>
<path fill="none" stroke="midnightblue" d="M573.515,-168.444C619.412,-158.984 693.38,-143.738 742.826,-133.547"/>
<polygon fill="midnightblue" stroke="midnightblue" points="743.592,-136.963 752.68,-131.516 742.179,-130.107 743.592,-136.963"/>
</g>
<!-- Node5 -->
<g id="node5" class="node"><title>Node5</title>
<polygon fill="none" stroke="#bfbfbf" points="349.5,-112.5 349.5,-131.5 460.5,-131.5 460.5,-112.5 349.5,-112.5"/>
<text text-anchor="middle" x="405" y="-119.5" font-family="Helvetica,sans-Serif" font-size="10.00">yarp/dev/PolyDriver.h</text>
</g>
<!-- Node2&#45;&gt;Node5 -->
<g id="edge4" class="edge"><title>Node2&#45;&gt;Node5</title>
<path fill="none" stroke="midnightblue" d="M511.876,-168.444C490.976,-159.557 458.065,-145.563 434.284,-135.451"/>
<polygon fill="midnightblue" stroke="midnightblue" points="435.602,-132.208 425.029,-131.516 432.862,-138.65 435.602,-132.208"/>
</g>
<!-- Node6 -->
<g id="node6" class="node"><title>Node6</title>
<polygon fill="none" stroke="#bfbfbf" points="133.5,-56.5 133.5,-75.5 224.5,-75.5 224.5,-56.5 133.5,-56.5"/>
<text text-anchor="middle" x="179" y="-63.5" font-family="Helvetica,sans-Serif" font-size="10.00">yarp/sig/Vector.h</text>
</g>
<!-- Node2&#45;&gt;Node6 -->
<g id="edge5" class="edge"><title>Node2&#45;&gt;Node6</title>
<path fill="none" stroke="midnightblue" d="M470.761,-174.508C391.103,-170.22 257.345,-159.121 217,-132 200.763,-121.085 190.523,-100.715 184.818,-85.6762"/>
<polygon fill="midnightblue" stroke="midnightblue" points="188.009,-84.1949 181.444,-75.8796 181.391,-86.4743 188.009,-84.1949"/>
</g>
<!-- Node7 -->
<g id="node7" class="node"><title>Node7</title>
<g id="a_node7"><a xlink:href="autogenerated_2include_2thrifts_2_human_forces_8h.html" target="_top" xlink:title="thrifts/HumanForces.h">
<polygon fill="none" stroke="black" points="604,-112.5 604,-131.5 718,-131.5 718,-112.5 604,-112.5"/>
<text text-anchor="middle" x="661" y="-119.5" font-family="Helvetica,sans-Serif" font-size="10.00">thrifts/HumanForces.h</text>
</a>
</g>
</g>
<!-- Node2&#45;&gt;Node7 -->
<g id="edge6" class="edge"><title>Node2&#45;&gt;Node7</title>
<path fill="none" stroke="midnightblue" d="M552.44,-168.444C573.67,-159.557 607.099,-145.563 631.255,-135.451"/>
<polygon fill="midnightblue" stroke="midnightblue" points="632.782,-138.606 640.655,-131.516 630.079,-132.149 632.782,-138.606"/>
</g>
<!-- Node11 -->
<g id="node11" class="node"><title>Node11</title>
<g id="a_node11"><a xlink:href="autogenerated_2include_2thrifts_2_human_state_8h.html" target="_top" xlink:title="thrifts/HumanState.h">
<polygon fill="none" stroke="black" points="478.5,-112.5 478.5,-131.5 585.5,-131.5 585.5,-112.5 478.5,-112.5"/>
<text text-anchor="middle" x="532" y="-119.5" font-family="Helvetica,sans-Serif" font-size="10.00">thrifts/HumanState.h</text>
</a>
</g>
</g>
<!-- Node2&#45;&gt;Node11 -->
<g id="edge12" class="edge"><title>Node2&#45;&gt;Node11</title>
<path fill="none" stroke="midnightblue" d="M532,-168.083C532,-161.006 532,-150.861 532,-141.986"/>
<polygon fill="midnightblue" stroke="midnightblue" points="535.5,-141.751 532,-131.751 528.5,-141.751 535.5,-141.751"/>
</g>
<!-- Node8 -->
<g id="node8" class="node"><title>Node8</title>
<polygon fill="none" stroke="#bfbfbf" points="530,-0.5 530,-19.5 610,-19.5 610,-0.5 530,-0.5"/>
<text text-anchor="middle" x="570" y="-7.5" font-family="Helvetica,sans-Serif" font-size="10.00">yarp/os/Wire.h</text>
</g>
<!-- Node7&#45;&gt;Node8 -->
<g id="edge7" class="edge"><title>Node7&#45;&gt;Node8</title>
<path fill="none" stroke="midnightblue" d="M639.075,-112.413C622.996,-105.043 601.817,-92.92 589,-76 578.805,-62.5414 574.069,-43.7277 571.876,-29.8023"/>
<polygon fill="midnightblue" stroke="midnightblue" points="575.347,-29.3531 570.606,-19.8782 568.404,-30.2415 575.347,-29.3531"/>
</g>
<!-- Node9 -->
<g id="node9" class="node"><title>Node9</title>
<polygon fill="none" stroke="#bfbfbf" points="656,-0.5 656,-19.5 776,-19.5 776,-0.5 656,-0.5"/>
<text text-anchor="middle" x="716" y="-7.5" font-family="Helvetica,sans-Serif" font-size="10.00">yarp/os/idl/WireTypes.h</text>
</g>
<!-- Node7&#45;&gt;Node9 -->
<g id="edge8" class="edge"><title>Node7&#45;&gt;Node9</title>
<path fill="none" stroke="midnightblue" d="M684.788,-112.499C700.721,-105.413 720.463,-93.6052 730,-76 737.974,-61.2794 732.42,-42.376 726.106,-28.7538"/>
<polygon fill="midnightblue" stroke="midnightblue" points="729.038,-26.8038 721.342,-19.5231 722.818,-30.0145 729.038,-26.8038"/>
</g>
<!-- Node10 -->
<g id="node10" class="node"><title>Node10</title>
<g id="a_node10"><a xlink:href="autogenerated_2include_2thrifts_2_force6_d_8h.html" target="_top" xlink:title="thrifts/Force6D.h">
<polygon fill="none" stroke="black" points="598,-56.5 598,-75.5 688,-75.5 688,-56.5 598,-56.5"/>
<text text-anchor="middle" x="643" y="-63.5" font-family="Helvetica,sans-Serif" font-size="10.00">thrifts/Force6D.h</text>
</a>
</g>
</g>
<!-- Node7&#45;&gt;Node10 -->
<g id="edge9" class="edge"><title>Node7&#45;&gt;Node10</title>
<path fill="none" stroke="midnightblue" d="M658.028,-112.083C655.616,-104.849 652.136,-94.4087 649.132,-85.3968"/>
<polygon fill="midnightblue" stroke="midnightblue" points="652.4,-84.1311 645.917,-75.7511 645.759,-86.3447 652.4,-84.1311"/>
</g>
<!-- Node10&#45;&gt;Node8 -->
<g id="edge10" class="edge"><title>Node10&#45;&gt;Node8</title>
<path fill="none" stroke="midnightblue" d="M631.271,-56.324C620.163,-48.1066 603.258,-35.6017 590.017,-25.8069"/>
<polygon fill="midnightblue" stroke="midnightblue" points="592.063,-22.9671 581.942,-19.8339 587.9,-28.5948 592.063,-22.9671"/>
</g>
<!-- Node10&#45;&gt;Node9 -->
<g id="edge11" class="edge"><title>Node10&#45;&gt;Node9</title>
<path fill="none" stroke="midnightblue" d="M654.729,-56.324C665.837,-48.1066 682.742,-35.6017 695.983,-25.8069"/>
<polygon fill="midnightblue" stroke="midnightblue" points="698.1,-28.5948 704.058,-19.8339 693.937,-22.9671 698.1,-28.5948"/>
</g>
<!-- Node11&#45;&gt;Node6 -->
<g id="edge15" class="edge"><title>Node11&#45;&gt;Node6</title>
<path fill="none" stroke="midnightblue" d="M478.387,-112.799C412.527,-102.724 301.347,-85.716 234.594,-75.5044"/>
<polygon fill="midnightblue" stroke="midnightblue" points="235.091,-72.0398 224.677,-73.9874 234.032,-78.9594 235.091,-72.0398"/>
</g>
<!-- Node11&#45;&gt;Node8 -->
<g id="edge13" class="edge"><title>Node11&#45;&gt;Node8</title>
<path fill="none" stroke="midnightblue" d="M534.982,-112.368C541.142,-94.5366 555.389,-53.2953 563.688,-29.2717"/>
<polygon fill="midnightblue" stroke="midnightblue" points="567.075,-30.1862 567.032,-19.5914 560.459,-27.9005 567.075,-30.1862"/>
</g>
<!-- Node11&#45;&gt;Node9 -->
<g id="edge14" class="edge"><title>Node11&#45;&gt;Node9</title>
<path fill="none" stroke="midnightblue" d="M584.431,-112.426C626.473,-104.541 681.005,-91.7072 697,-76 709.179,-64.0399 713.655,-44.7388 715.248,-30.2705"/>
<polygon fill="midnightblue" stroke="midnightblue" points="718.765,-30.1633 715.999,-19.9357 711.783,-29.6555 718.765,-30.1633"/>
</g>
<!-- Node13&#45;&gt;Node6 -->
<g id="edge19" class="edge"><title>Node13&#45;&gt;Node6</title>
<path fill="none" stroke="midnightblue" d="M90.0307,-112.324C107.03,-103.664 133.376,-90.2424 152.993,-80.249"/>
<polygon fill="midnightblue" stroke="midnightblue" points="154.69,-83.3125 162.012,-75.6545 151.512,-77.0752 154.69,-83.3125"/>
</g>
<!-- Node13&#45;&gt;Node12 -->
<g id="edge18" class="edge"><title>Node13&#45;&gt;Node12</title>
<path fill="none" stroke="midnightblue" d="M67.5507,-112.083C62.9855,-104.613 56.3316,-93.7244 50.7066,-84.5199"/>
<polygon fill="midnightblue" stroke="midnightblue" points="53.5489,-82.4588 45.3479,-75.7511 47.5759,-86.109 53.5489,-82.4588"/>
</g>
<!-- Node14&#45;&gt;Node13 -->
<g id="edge21" class="edge"><title>Node14&#45;&gt;Node13</title>
<path fill="none" stroke="midnightblue" d="M135.95,-168.324C124.537,-160.107 107.169,-147.602 93.5651,-137.807"/>
<polygon fill="midnightblue" stroke="midnightblue" points="95.4297,-134.837 85.2693,-131.834 91.3396,-140.517 95.4297,-134.837"/>
</g>
<!-- Node15&#45;&gt;Node6 -->
<g id="edge24" class="edge"><title>Node15&#45;&gt;Node6</title>
<path fill="none" stroke="midnightblue" d="M234.122,-168.465C216.638,-161.566 195.333,-149.99 184,-132 175.422,-118.384 174.831,-99.8409 176,-86.0448"/>
<polygon fill="midnightblue" stroke="midnightblue" points="179.515,-86.1368 177.26,-75.7848 172.567,-85.2837 179.515,-86.1368"/>
</g>
<!-- Node15&#45;&gt;Node13 -->
<g id="edge23" class="edge"><title>Node15&#45;&gt;Node13</title>
<path fill="none" stroke="midnightblue" d="M232.052,-168.444C199.842,-159.241 148.466,-144.562 112.858,-134.388"/>
<polygon fill="midnightblue" stroke="midnightblue" points="113.384,-130.898 102.808,-131.516 111.461,-137.629 113.384,-130.898"/>
</g>
<!-- Node17 -->
<g id="node17" class="node"><title>Node17</title>
<polygon fill="none" stroke="#bfbfbf" points="908.5,-0.5 908.5,-19.5 949.5,-19.5 949.5,-0.5 908.5,-0.5"/>
<text text-anchor="middle" x="929" y="-7.5" font-family="Helvetica,sans-Serif" font-size="10.00">string</text>
</g>
<!-- Node16&#45;&gt;Node17 -->
<g id="edge26" class="edge"><title>Node16&#45;&gt;Node17</title>
<path fill="none" stroke="midnightblue" d="M929,-56.083C929,-49.0059 929,-38.8611 929,-29.9865"/>
<polygon fill="midnightblue" stroke="midnightblue" points="932.5,-29.751 929,-19.7511 925.5,-29.7511 932.5,-29.751"/>
</g>
<!-- Node18&#45;&gt;Node16 -->
<g id="edge28" class="edge"><title>Node18&#45;&gt;Node16</title>
<path fill="none" stroke="midnightblue" d="M969.909,-112.083C962.845,-104.298 952.412,-92.8015 943.851,-83.3665"/>
<polygon fill="midnightblue" stroke="midnightblue" points="946.253,-80.8047 936.941,-75.7511 941.069,-85.5087 946.253,-80.8047"/>
</g>
<!-- Node18&#45;&gt;Node19 -->
<g id="edge29" class="edge"><title>Node18&#45;&gt;Node19</title>
<path fill="none" stroke="midnightblue" d="M1021.89,-112.444C1070.52,-102.964 1148.95,-87.6747 1201.22,-77.4835"/>
<polygon fill="midnightblue" stroke="midnightblue" points="1202.17,-80.8653 1211.31,-75.5164 1200.83,-73.9946 1202.17,-80.8653"/>
</g>
<!-- Node20&#45;&gt;Node4 -->
<g id="edge32" class="edge"><title>Node20&#45;&gt;Node4</title>
<path fill="none" stroke="midnightblue" d="M1002.7,-168.444C959.441,-159.023 889.827,-143.866 843.027,-133.675"/>
<polygon fill="midnightblue" stroke="midnightblue" points="843.628,-130.224 833.112,-131.516 842.139,-137.064 843.628,-130.224"/>
</g>
<!-- Node20&#45;&gt;Node11 -->
<g id="edge36" class="edge"><title>Node20&#45;&gt;Node11</title>
<path fill="none" stroke="midnightblue" d="M976.387,-171.255C891.215,-163.605 737.708,-149.165 595.793,-132.048"/>
<polygon fill="midnightblue" stroke="midnightblue" points="595.945,-128.541 585.596,-130.811 595.102,-135.49 595.945,-128.541"/>
</g>
<!-- Node20&#45;&gt;Node18 -->
<g id="edge31" class="edge"><title>Node20&#45;&gt;Node18</title>
<path fill="none" stroke="midnightblue" d="M1031.72,-168.324C1022.16,-160.263 1007.72,-148.077 996.216,-138.369"/>
<polygon fill="midnightblue" stroke="midnightblue" points="998.37,-135.608 988.47,-131.834 993.856,-140.958 998.37,-135.608"/>
</g>
<!-- Node20&#45;&gt;Node19 -->
<g id="edge33" class="edge"><title>Node20&#45;&gt;Node19</title>
<path fill="none" stroke="midnightblue" d="M1107.61,-168.78C1156.03,-161.444 1216.57,-149.191 1235,-132 1247.67,-120.18 1252.39,-100.549 1254.1,-85.9477"/>
<polygon fill="midnightblue" stroke="midnightblue" points="1257.63,-85.8088 1254.93,-75.5619 1250.65,-85.2515 1257.63,-85.8088"/>
</g>
<!-- Node21 -->
<g id="node21" class="node"><title>Node21</title>
<polygon fill="none" stroke="#bfbfbf" points="1065.5,-112.5 1065.5,-131.5 1226.5,-131.5 1226.5,-112.5 1065.5,-112.5"/>
<text text-anchor="middle" x="1146" y="-119.5" font-family="Helvetica,sans-Serif" font-size="10.00">iDynTree/KinDynComputations.h</text>
</g>
<!-- Node20&#45;&gt;Node21 -->
<g id="edge34" class="edge"><title>Node20&#45;&gt;Node21</title>
<path fill="none" stroke="midnightblue" d="M1058.71,-168.324C1075.31,-159.703 1101,-146.364 1120.22,-136.386"/>
<polygon fill="midnightblue" stroke="midnightblue" points="1122.07,-139.369 1129.33,-131.655 1118.84,-133.156 1122.07,-139.369"/>
</g>
<!-- Node20&#45;&gt;Node22 -->
<g id="edge35" class="edge"><title>Node20&#45;&gt;Node22</title>
<path fill="none" stroke="midnightblue" d="M1098.73,-168.444C1162.49,-158.826 1265.9,-143.228 1333.43,-133.041"/>
<polygon fill="midnightblue" stroke="midnightblue" points="1334.17,-136.469 1343.54,-131.516 1333.13,-129.547 1334.17,-136.469"/>
</g>
</g>
</svg>
