<?xml version="1.0" encoding="UTF-8" standalone="no"?>
<!DOCTYPE svg PUBLIC "-//W3C//DTD SVG 1.1//EN"
 "http://www.w3.org/Graphics/SVG/1.1/DTD/svg11.dtd">
<!-- Generated by graphviz version 2.36.0 (20140111.2315)
 -->
<!-- Title: /home/travis/build/robotology&#45;playground/human&#45;dynamics&#45;estimation/human&#45;forces&#45;provider/src/RobotFrameTransformer.cpp Pages: 1 -->
<svg width="1155pt" height="296pt"
 viewBox="0.00 0.00 1155.00 296.00" xmlns="http://www.w3.org/2000/svg" xmlns:xlink="http://www.w3.org/1999/xlink">
<g id="graph0" class="graph" transform="scale(1 1) rotate(0) translate(4 292)">
<title>/home/travis/build/robotology&#45;playground/human&#45;dynamics&#45;estimation/human&#45;forces&#45;provider/src/RobotFrameTransformer.cpp</title>
<!-- Node1 -->
<g id="node1" class="node"><title>Node1</title>
<polygon fill="#bfbfbf" stroke="black" points="669.5,-224.5 669.5,-287.5 814.5,-287.5 814.5,-224.5 669.5,-224.5"/>
<text text-anchor="start" x="677.5" y="-275.5" font-family="Helvetica,sans-Serif" font-size="10.00">/home/travis/build</text>
<text text-anchor="start" x="677.5" y="-264.5" font-family="Helvetica,sans-Serif" font-size="10.00">/robotology&#45;playground</text>
<text text-anchor="start" x="677.5" y="-253.5" font-family="Helvetica,sans-Serif" font-size="10.00">/human&#45;dynamics&#45;estimation</text>
<text text-anchor="start" x="677.5" y="-242.5" font-family="Helvetica,sans-Serif" font-size="10.00">/human&#45;forces&#45;provider/src</text>
<text text-anchor="middle" x="742" y="-231.5" font-family="Helvetica,sans-Serif" font-size="10.00">/RobotFrameTransformer.cpp</text>
</g>
<!-- Node2 -->
<g id="node2" class="node"><title>Node2</title>
<g id="a_node2"><a xlink:href="_robot_frame_transformer_8h.html" target="_top" xlink:title="RobotFrameTransformer.h">
<polygon fill="none" stroke="black" points="365.5,-168.5 365.5,-187.5 496.5,-187.5 496.5,-168.5 365.5,-168.5"/>
<text text-anchor="middle" x="431" y="-175.5" font-family="Helvetica,sans-Serif" font-size="10.00">RobotFrameTransformer.h</text>
</a>
</g>
</g>
<!-- Node1&#45;&gt;Node2 -->
<g id="edge1" class="edge"><title>Node1&#45;&gt;Node2</title>
<path fill="none" stroke="midnightblue" d="M669.477,-237.277C609.697,-222.669 526.78,-202.406 476.122,-190.027"/>
<polygon fill="midnightblue" stroke="midnightblue" points="476.675,-186.559 466.13,-187.585 475.013,-193.359 476.675,-186.559"/>
</g>
<!-- Node8 -->
<g id="node8" class="node"><title>Node8</title>
<polygon fill="none" stroke="#bfbfbf" points="652.5,-112.5 652.5,-131.5 813.5,-131.5 813.5,-112.5 652.5,-112.5"/>
<text text-anchor="middle" x="733" y="-119.5" font-family="Helvetica,sans-Serif" font-size="10.00">iDynTree/KinDynComputations.h</text>
</g>
<!-- Node1&#45;&gt;Node8 -->
<g id="edge17" class="edge"><title>Node1&#45;&gt;Node8</title>
<path fill="none" stroke="midnightblue" d="M681.187,-224.465C667.876,-214.732 655.527,-202.608 648,-188 635.479,-163.7 665.437,-145.859 693.176,-135.081"/>
<polygon fill="midnightblue" stroke="midnightblue" points="694.625,-138.278 702.822,-131.564 692.228,-131.701 694.625,-138.278"/>
</g>
<!-- Node14 -->
<g id="node14" class="node"><title>Node14</title>
<polygon fill="none" stroke="#bfbfbf" points="657,-168.5 657,-187.5 733,-187.5 733,-168.5 657,-168.5"/>
<text text-anchor="middle" x="695" y="-175.5" font-family="Helvetica,sans-Serif" font-size="10.00">yarp/os/Log.h</text>
</g>
<!-- Node1&#45;&gt;Node14 -->
<g id="edge14" class="edge"><title>Node1&#45;&gt;Node14</title>
<path fill="none" stroke="midnightblue" d="M722.883,-224.088C717.038,-214.636 710.818,-204.577 705.739,-196.364"/>
<polygon fill="midnightblue" stroke="midnightblue" points="708.628,-194.382 700.391,-187.718 702.674,-198.064 708.628,-194.382"/>
</g>
<!-- Node15 -->
<g id="node15" class="node"><title>Node15</title>
<polygon fill="none" stroke="#bfbfbf" points="751,-168.5 751,-187.5 829,-187.5 829,-168.5 751,-168.5"/>
<text text-anchor="middle" x="790" y="-175.5" font-family="Helvetica,sans-Serif" font-size="10.00">yarp/dev/api.h</text>
</g>
<!-- Node1&#45;&gt;Node15 -->
<g id="edge15" class="edge"><title>Node1&#45;&gt;Node15</title>
<path fill="none" stroke="midnightblue" d="M761.523,-224.088C767.493,-214.636 773.846,-204.577 779.033,-196.364"/>
<polygon fill="midnightblue" stroke="midnightblue" points="782.113,-198.042 784.494,-187.718 776.195,-194.304 782.113,-198.042"/>
</g>
<!-- Node16 -->
<g id="node16" class="node"><title>Node16</title>
<polygon fill="none" stroke="#bfbfbf" points="847,-168.5 847,-187.5 957,-187.5 957,-168.5 847,-168.5"/>
<text text-anchor="middle" x="902" y="-175.5" font-family="Helvetica,sans-Serif" font-size="10.00">yarp/dev/IEncoders.h</text>
</g>
<!-- Node1&#45;&gt;Node16 -->
<g id="edge16" class="edge"><title>Node1&#45;&gt;Node16</title>
<path fill="none" stroke="midnightblue" d="M806.617,-224.307C830.399,-213.011 856.065,-200.819 874.777,-191.931"/>
<polygon fill="midnightblue" stroke="midnightblue" points="876.35,-195.059 883.881,-187.607 873.346,-188.736 876.35,-195.059"/>
</g>
<!-- Node17 -->
<g id="node17" class="node"><title>Node17</title>
<polygon fill="none" stroke="#bfbfbf" points="975,-168.5 975,-187.5 1147,-187.5 1147,-168.5 975,-168.5"/>
<text text-anchor="middle" x="1061" y="-175.5" font-family="Helvetica,sans-Serif" font-size="10.00">iDynTree/yarp/YARPConversions.h</text>
</g>
<!-- Node1&#45;&gt;Node17 -->
<g id="edge18" class="edge"><title>Node1&#45;&gt;Node17</title>
<path fill="none" stroke="midnightblue" d="M814.785,-237.659C876.33,-222.997 962.622,-202.438 1015.01,-189.957"/>
<polygon fill="midnightblue" stroke="midnightblue" points="1016.1,-193.295 1025.02,-187.573 1014.48,-186.486 1016.1,-193.295"/>
</g>
<!-- Node3 -->
<g id="node3" class="node"><title>Node3</title>
<g id="a_node3"><a xlink:href="_generic_frame_transformer_8h.html" target="_top" xlink:title="GenericFrameTransformer.h">
<polygon fill="none" stroke="black" points="23.5,-112.5 23.5,-131.5 162.5,-131.5 162.5,-112.5 23.5,-112.5"/>
<text text-anchor="middle" x="93" y="-119.5" font-family="Helvetica,sans-Serif" font-size="10.00">GenericFrameTransformer.h</text>
</a>
</g>
</g>
<!-- Node2&#45;&gt;Node3 -->
<g id="edge2" class="edge"><title>Node2&#45;&gt;Node3</title>
<path fill="none" stroke="midnightblue" d="M377.443,-168.444C317.367,-158.846 220.01,-143.292 156.242,-133.104"/>
<polygon fill="midnightblue" stroke="midnightblue" points="156.734,-129.638 146.307,-131.516 155.629,-136.55 156.734,-129.638"/>
</g>
<!-- Node6 -->
<g id="node6" class="node"><title>Node6</title>
<polygon fill="none" stroke="#bfbfbf" points="123,-56.5 123,-75.5 259,-75.5 259,-56.5 123,-56.5"/>
<text text-anchor="middle" x="191" y="-63.5" font-family="Helvetica,sans-Serif" font-size="10.00">iDynTree/Core/Transform.h</text>
</g>
<!-- Node2&#45;&gt;Node6 -->
<g id="edge7" class="edge"><title>Node2&#45;&gt;Node6</title>
<path fill="none" stroke="midnightblue" d="M365.374,-171.106C308.64,-164.706 232.334,-152.543 210,-132 197.174,-120.203 192.831,-100.277 191.447,-85.5902"/>
<polygon fill="midnightblue" stroke="midnightblue" points="194.941,-85.3846 190.875,-75.6014 187.953,-85.7854 194.941,-85.3846"/>
</g>
<!-- Node7 -->
<g id="node7" class="node"><title>Node7</title>
<polygon fill="none" stroke="#bfbfbf" points="219.5,-112.5 219.5,-131.5 334.5,-131.5 334.5,-112.5 219.5,-112.5"/>
<text text-anchor="middle" x="277" y="-119.5" font-family="Helvetica,sans-Serif" font-size="10.00">yarp/os/BufferedPort.h</text>
</g>
<!-- Node2&#45;&gt;Node7 -->
<g id="edge6" class="edge"><title>Node2&#45;&gt;Node7</title>
<path fill="none" stroke="midnightblue" d="M406.598,-168.444C380.803,-159.399 339.923,-145.064 310.982,-134.916"/>
<polygon fill="midnightblue" stroke="midnightblue" points="311.882,-131.523 301.288,-131.516 309.566,-138.128 311.882,-131.523"/>
</g>
<!-- Node2&#45;&gt;Node8 -->
<g id="edge8" class="edge"><title>Node2&#45;&gt;Node8</title>
<path fill="none" stroke="midnightblue" d="M478.853,-168.444C532.199,-158.905 618.445,-143.483 675.436,-133.293"/>
<polygon fill="midnightblue" stroke="midnightblue" points="676.143,-136.722 685.371,-131.516 674.911,-129.831 676.143,-136.722"/>
</g>
<!-- Node9 -->
<g id="node9" class="node"><title>Node9</title>
<polygon fill="none" stroke="#bfbfbf" points="352,-112.5 352,-131.5 510,-131.5 510,-112.5 352,-112.5"/>
<text text-anchor="middle" x="431" y="-119.5" font-family="Helvetica,sans-Serif" font-size="10.00">iDynTree/Core/VectorDynSize.h</text>
</g>
<!-- Node2&#45;&gt;Node9 -->
<g id="edge9" class="edge"><title>Node2&#45;&gt;Node9</title>
<path fill="none" stroke="midnightblue" d="M431,-168.083C431,-161.006 431,-150.861 431,-141.986"/>
<polygon fill="midnightblue" stroke="midnightblue" points="434.5,-141.751 431,-131.751 427.5,-141.751 434.5,-141.751"/>
</g>
<!-- Node10 -->
<g id="node10" class="node"><title>Node10</title>
<g id="a_node10"><a xlink:href="autogenerated_2include_2thrifts_2_human_state_8h.html" target="_top" xlink:title="thrifts/HumanState.h">
<polygon fill="none" stroke="black" points="527.5,-112.5 527.5,-131.5 634.5,-131.5 634.5,-112.5 527.5,-112.5"/>
<text text-anchor="middle" x="581" y="-119.5" font-family="Helvetica,sans-Serif" font-size="10.00">thrifts/HumanState.h</text>
</a>
</g>
</g>
<!-- Node2&#45;&gt;Node10 -->
<g id="edge10" class="edge"><title>Node2&#45;&gt;Node10</title>
<path fill="none" stroke="midnightblue" d="M454.768,-168.444C479.893,-159.399 519.711,-145.064 547.9,-134.916"/>
<polygon fill="midnightblue" stroke="midnightblue" points="549.12,-138.197 557.343,-131.516 546.749,-131.611 549.12,-138.197"/>
</g>
<!-- Node4 -->
<g id="node4" class="node"><title>Node4</title>
<g id="a_node4"><a xlink:href="_frame_transformer_8h.html" target="_top" xlink:title="FrameTransformer.h">
<polygon fill="none" stroke="black" points="-0.5,-56.5 -0.5,-75.5 104.5,-75.5 104.5,-56.5 -0.5,-56.5"/>
<text text-anchor="middle" x="52" y="-63.5" font-family="Helvetica,sans-Serif" font-size="10.00">FrameTransformer.h</text>
</a>
</g>
</g>
<!-- Node3&#45;&gt;Node4 -->
<g id="edge3" class="edge"><title>Node3&#45;&gt;Node4</title>
<path fill="none" stroke="midnightblue" d="M86.2297,-112.083C80.4384,-104.455 71.9415,-93.2645 64.8625,-83.9408"/>
<polygon fill="midnightblue" stroke="midnightblue" points="67.479,-81.5991 58.6443,-75.7511 61.9039,-85.8321 67.479,-81.5991"/>
</g>
<!-- Node3&#45;&gt;Node6 -->
<g id="edge5" class="edge"><title>Node3&#45;&gt;Node6</title>
<path fill="none" stroke="midnightblue" d="M108.745,-112.324C124.319,-103.743 148.377,-90.486 166.459,-80.5224"/>
<polygon fill="midnightblue" stroke="midnightblue" points="168.224,-83.546 175.294,-75.6545 164.846,-77.4152 168.224,-83.546"/>
</g>
<!-- Node5 -->
<g id="node5" class="node"><title>Node5</title>
<polygon fill="none" stroke="#bfbfbf" points="31.5,-0.5 31.5,-19.5 72.5,-19.5 72.5,-0.5 31.5,-0.5"/>
<text text-anchor="middle" x="52" y="-7.5" font-family="Helvetica,sans-Serif" font-size="10.00">string</text>
</g>
<!-- Node4&#45;&gt;Node5 -->
<g id="edge4" class="edge"><title>Node4&#45;&gt;Node5</title>
<path fill="none" stroke="midnightblue" d="M52,-56.083C52,-49.0059 52,-38.8611 52,-29.9865"/>
<polygon fill="midnightblue" stroke="midnightblue" points="55.5001,-29.751 52,-19.7511 48.5001,-29.7511 55.5001,-29.751"/>
</g>
<!-- Node11 -->
<g id="node11" class="node"><title>Node11</title>
<polygon fill="none" stroke="#bfbfbf" points="423,-56.5 423,-75.5 503,-75.5 503,-56.5 423,-56.5"/>
<text text-anchor="middle" x="463" y="-63.5" font-family="Helvetica,sans-Serif" font-size="10.00">yarp/os/Wire.h</text>
</g>
<!-- Node10&#45;&gt;Node11 -->
<g id="edge11" class="edge"><title>Node10&#45;&gt;Node11</title>
<path fill="none" stroke="midnightblue" d="M562.303,-112.444C543.056,-103.636 512.848,-89.8116 490.8,-79.722"/>
<polygon fill="midnightblue" stroke="midnightblue" points="492.16,-76.4951 481.61,-75.5164 489.247,-82.8603 492.16,-76.4951"/>
</g>
<!-- Node12 -->
<g id="node12" class="node"><title>Node12</title>
<polygon fill="none" stroke="#bfbfbf" points="521,-56.5 521,-75.5 641,-75.5 641,-56.5 521,-56.5"/>
<text text-anchor="middle" x="581" y="-63.5" font-family="Helvetica,sans-Serif" font-size="10.00">yarp/os/idl/WireTypes.h</text>
</g>
<!-- Node10&#45;&gt;Node12 -->
<g id="edge12" class="edge"><title>Node10&#45;&gt;Node12</title>
<path fill="none" stroke="midnightblue" d="M581,-112.083C581,-105.006 581,-94.8611 581,-85.9865"/>
<polygon fill="midnightblue" stroke="midnightblue" points="584.5,-85.751 581,-75.7511 577.5,-85.7511 584.5,-85.751"/>
</g>
<!-- Node13 -->
<g id="node13" class="node"><title>Node13</title>
<polygon fill="none" stroke="#bfbfbf" points="659.5,-56.5 659.5,-75.5 750.5,-75.5 750.5,-56.5 659.5,-56.5"/>
<text text-anchor="middle" x="705" y="-63.5" font-family="Helvetica,sans-Serif" font-size="10.00">yarp/sig/Vector.h</text>
</g>
<!-- Node10&#45;&gt;Node13 -->
<g id="edge13" class="edge"><title>Node10&#45;&gt;Node13</title>
<path fill="none" stroke="midnightblue" d="M600.648,-112.444C620.965,-103.596 652.903,-89.6875 676.098,-79.5865"/>
<polygon fill="midnightblue" stroke="midnightblue" points="677.673,-82.7181 685.444,-75.5164 674.878,-76.3002 677.673,-82.7181"/>
</g>
</g>
</svg>
