<?xml version="1.0" encoding="UTF-8" standalone="no"?>
<!DOCTYPE svg PUBLIC "-//W3C//DTD SVG 1.1//EN"
 "http://www.w3.org/Graphics/SVG/1.1/DTD/svg11.dtd">
<!-- Generated by graphviz version 2.36.0 (20140111.2315)
 -->
<!-- Title: /home/travis/build/robotology&#45;playground/human&#45;dynamics&#45;estimation/human&#45;forces&#45;provider/include/RobotFrameTransformer.h Pages: 1 -->
<svg width="938pt" height="240pt"
 viewBox="0.00 0.00 938.00 240.00" xmlns="http://www.w3.org/2000/svg" xmlns:xlink="http://www.w3.org/1999/xlink">
<g id="graph0" class="graph" transform="scale(1 1) rotate(0) translate(4 236)">
<title>/home/travis/build/robotology&#45;playground/human&#45;dynamics&#45;estimation/human&#45;forces&#45;provider/include/RobotFrameTransformer.h</title>
<!-- Node1 -->
<g id="node1" class="node"><title>Node1</title>
<polygon fill="#bfbfbf" stroke="black" points="280,-168.5 280,-231.5 430,-231.5 430,-168.5 280,-168.5"/>
<text text-anchor="start" x="288" y="-219.5" font-family="Helvetica,sans-Serif" font-size="10.00">/home/travis/build</text>
<text text-anchor="start" x="288" y="-208.5" font-family="Helvetica,sans-Serif" font-size="10.00">/robotology&#45;playground</text>
<text text-anchor="start" x="288" y="-197.5" font-family="Helvetica,sans-Serif" font-size="10.00">/human&#45;dynamics&#45;estimation</text>
<text text-anchor="start" x="288" y="-186.5" font-family="Helvetica,sans-Serif" font-size="10.00">/human&#45;forces&#45;provider/include</text>
<text text-anchor="middle" x="355" y="-175.5" font-family="Helvetica,sans-Serif" font-size="10.00">/RobotFrameTransformer.h</text>
</g>
<!-- Node2 -->
<g id="node2" class="node"><title>Node2</title>
<g id="a_node2"><a xlink:href="_generic_frame_transformer_8h.html" target="_top" xlink:title="GenericFrameTransformer.h">
<polygon fill="none" stroke="black" points="23.5,-112.5 23.5,-131.5 162.5,-131.5 162.5,-112.5 23.5,-112.5"/>
<text text-anchor="middle" x="93" y="-119.5" font-family="Helvetica,sans-Serif" font-size="10.00">GenericFrameTransformer.h</text>
</a>
</g>
</g>
<!-- Node1&#45;&gt;Node2 -->
<g id="edge1" class="edge"><title>Node1&#45;&gt;Node2</title>
<path fill="none" stroke="midnightblue" d="M279.921,-177.221C231.755,-163.25 171.172,-145.676 132.265,-134.39"/>
<polygon fill="midnightblue" stroke="midnightblue" points="132.957,-130.946 122.378,-131.522 131.007,-137.669 132.957,-130.946"/>
</g>
<!-- Node5 -->
<g id="node5" class="node"><title>Node5</title>
<polygon fill="none" stroke="#bfbfbf" points="123,-56.5 123,-75.5 259,-75.5 259,-56.5 123,-56.5"/>
<text text-anchor="middle" x="191" y="-63.5" font-family="Helvetica,sans-Serif" font-size="10.00">iDynTree/Core/Transform.h</text>
</g>
<!-- Node1&#45;&gt;Node5 -->
<g id="edge6" class="edge"><title>Node1&#45;&gt;Node5</title>
<path fill="none" stroke="midnightblue" d="M279.631,-178.241C254.446,-167.976 228.191,-153.114 210,-132 198.858,-119.068 194.243,-99.8975 192.335,-85.7242"/>
<polygon fill="midnightblue" stroke="midnightblue" points="195.804,-85.2391 191.313,-75.6435 188.84,-85.9457 195.804,-85.2391"/>
</g>
<!-- Node6 -->
<g id="node6" class="node"><title>Node6</title>
<polygon fill="none" stroke="#bfbfbf" points="219.5,-112.5 219.5,-131.5 334.5,-131.5 334.5,-112.5 219.5,-112.5"/>
<text text-anchor="middle" x="277" y="-119.5" font-family="Helvetica,sans-Serif" font-size="10.00">yarp/os/BufferedPort.h</text>
</g>
<!-- Node1&#45;&gt;Node6 -->
<g id="edge5" class="edge"><title>Node1&#45;&gt;Node6</title>
<path fill="none" stroke="midnightblue" d="M323.274,-168.088C312.941,-158.019 301.901,-147.263 293.197,-138.782"/>
<polygon fill="midnightblue" stroke="midnightblue" points="295.552,-136.19 285.948,-131.718 290.667,-141.204 295.552,-136.19"/>
</g>
<!-- Node7 -->
<g id="node7" class="node"><title>Node7</title>
<polygon fill="none" stroke="#bfbfbf" points="352.5,-112.5 352.5,-131.5 513.5,-131.5 513.5,-112.5 352.5,-112.5"/>
<text text-anchor="middle" x="433" y="-119.5" font-family="Helvetica,sans-Serif" font-size="10.00">iDynTree/KinDynComputations.h</text>
</g>
<!-- Node1&#45;&gt;Node7 -->
<g id="edge7" class="edge"><title>Node1&#45;&gt;Node7</title>
<path fill="none" stroke="midnightblue" d="M386.726,-168.088C397.059,-158.019 408.099,-147.263 416.803,-138.782"/>
<polygon fill="midnightblue" stroke="midnightblue" points="419.333,-141.204 424.052,-131.718 414.448,-136.19 419.333,-141.204"/>
</g>
<!-- Node8 -->
<g id="node8" class="node"><title>Node8</title>
<polygon fill="none" stroke="#bfbfbf" points="532,-112.5 532,-131.5 690,-131.5 690,-112.5 532,-112.5"/>
<text text-anchor="middle" x="611" y="-119.5" font-family="Helvetica,sans-Serif" font-size="10.00">iDynTree/Core/VectorDynSize.h</text>
</g>
<!-- Node1&#45;&gt;Node8 -->
<g id="edge8" class="edge"><title>Node1&#45;&gt;Node8</title>
<path fill="none" stroke="midnightblue" d="M430.079,-176.711C476.604,-162.899 534.452,-145.725 572.024,-134.571"/>
<polygon fill="midnightblue" stroke="midnightblue" points="573.468,-137.793 582.058,-131.592 571.475,-131.083 573.468,-137.793"/>
</g>
<!-- Node9 -->
<g id="node9" class="node"><title>Node9</title>
<g id="a_node9"><a xlink:href="autogenerated_2include_2thrifts_2_human_state_8h.html" target="_top" xlink:title="thrifts/HumanState.h">
<polygon fill="none" stroke="black" points="707.5,-112.5 707.5,-131.5 814.5,-131.5 814.5,-112.5 707.5,-112.5"/>
<text text-anchor="middle" x="761" y="-119.5" font-family="Helvetica,sans-Serif" font-size="10.00">thrifts/HumanState.h</text>
</a>
</g>
</g>
<!-- Node1&#45;&gt;Node9 -->
<g id="edge9" class="edge"><title>Node1&#45;&gt;Node9</title>
<path fill="none" stroke="midnightblue" d="M430.414,-184.883C510.083,-169.97 633.843,-146.803 705.177,-133.45"/>
<polygon fill="midnightblue" stroke="midnightblue" points="706.125,-136.833 715.31,-131.553 704.837,-129.953 706.125,-136.833"/>
</g>
<!-- Node3 -->
<g id="node3" class="node"><title>Node3</title>
<g id="a_node3"><a xlink:href="_frame_transformer_8h.html" target="_top" xlink:title="FrameTransformer.h">
<polygon fill="none" stroke="black" points="-0.5,-56.5 -0.5,-75.5 104.5,-75.5 104.5,-56.5 -0.5,-56.5"/>
<text text-anchor="middle" x="52" y="-63.5" font-family="Helvetica,sans-Serif" font-size="10.00">FrameTransformer.h</text>
</a>
</g>
</g>
<!-- Node2&#45;&gt;Node3 -->
<g id="edge2" class="edge"><title>Node2&#45;&gt;Node3</title>
<path fill="none" stroke="midnightblue" d="M86.2297,-112.083C80.4384,-104.455 71.9415,-93.2645 64.8625,-83.9408"/>
<polygon fill="midnightblue" stroke="midnightblue" points="67.479,-81.5991 58.6443,-75.7511 61.9039,-85.8321 67.479,-81.5991"/>
</g>
<!-- Node2&#45;&gt;Node5 -->
<g id="edge4" class="edge"><title>Node2&#45;&gt;Node5</title>
<path fill="none" stroke="midnightblue" d="M108.745,-112.324C124.319,-103.743 148.377,-90.486 166.459,-80.5224"/>
<polygon fill="midnightblue" stroke="midnightblue" points="168.224,-83.546 175.294,-75.6545 164.846,-77.4152 168.224,-83.546"/>
</g>
<!-- Node4 -->
<g id="node4" class="node"><title>Node4</title>
<polygon fill="none" stroke="#bfbfbf" points="31.5,-0.5 31.5,-19.5 72.5,-19.5 72.5,-0.5 31.5,-0.5"/>
<text text-anchor="middle" x="52" y="-7.5" font-family="Helvetica,sans-Serif" font-size="10.00">string</text>
</g>
<!-- Node3&#45;&gt;Node4 -->
<g id="edge3" class="edge"><title>Node3&#45;&gt;Node4</title>
<path fill="none" stroke="midnightblue" d="M52,-56.083C52,-49.0059 52,-38.8611 52,-29.9865"/>
<polygon fill="midnightblue" stroke="midnightblue" points="55.5001,-29.751 52,-19.7511 48.5001,-29.7511 55.5001,-29.751"/>
</g>
<!-- Node10 -->
<g id="node10" class="node"><title>Node10</title>
<polygon fill="none" stroke="#bfbfbf" points="603,-56.5 603,-75.5 683,-75.5 683,-56.5 603,-56.5"/>
<text text-anchor="middle" x="643" y="-63.5" font-family="Helvetica,sans-Serif" font-size="10.00">yarp/os/Wire.h</text>
</g>
<!-- Node9&#45;&gt;Node10 -->
<g id="edge10" class="edge"><title>Node9&#45;&gt;Node10</title>
<path fill="none" stroke="midnightblue" d="M742.303,-112.444C723.056,-103.636 692.848,-89.8116 670.8,-79.722"/>
<polygon fill="midnightblue" stroke="midnightblue" points="672.16,-76.4951 661.61,-75.5164 669.247,-82.8603 672.16,-76.4951"/>
</g>
<!-- Node11 -->
<g id="node11" class="node"><title>Node11</title>
<polygon fill="none" stroke="#bfbfbf" points="701,-56.5 701,-75.5 821,-75.5 821,-56.5 701,-56.5"/>
<text text-anchor="middle" x="761" y="-63.5" font-family="Helvetica,sans-Serif" font-size="10.00">yarp/os/idl/WireTypes.h</text>
</g>
<!-- Node9&#45;&gt;Node11 -->
<g id="edge11" class="edge"><title>Node9&#45;&gt;Node11</title>
<path fill="none" stroke="midnightblue" d="M761,-112.083C761,-105.006 761,-94.8611 761,-85.9865"/>
<polygon fill="midnightblue" stroke="midnightblue" points="764.5,-85.751 761,-75.7511 757.5,-85.7511 764.5,-85.751"/>
</g>
<!-- Node12 -->
<g id="node12" class="node"><title>Node12</title>
<polygon fill="none" stroke="#bfbfbf" points="839.5,-56.5 839.5,-75.5 930.5,-75.5 930.5,-56.5 839.5,-56.5"/>
<text text-anchor="middle" x="885" y="-63.5" font-family="Helvetica,sans-Serif" font-size="10.00">yarp/sig/Vector.h</text>
</g>
<!-- Node9&#45;&gt;Node12 -->
<g id="edge12" class="edge"><title>Node9&#45;&gt;Node12</title>
<path fill="none" stroke="midnightblue" d="M780.648,-112.444C800.965,-103.596 832.903,-89.6875 856.098,-79.5865"/>
<polygon fill="midnightblue" stroke="midnightblue" points="857.673,-82.7181 865.444,-75.5164 854.878,-76.3002 857.673,-82.7181"/>
</g>
</g>
</svg>
