<?xml version="1.0" encoding="UTF-8" standalone="no"?>
<!DOCTYPE svg PUBLIC "-//W3C//DTD SVG 1.1//EN"
 "http://www.w3.org/Graphics/SVG/1.1/DTD/svg11.dtd">
<!-- Generated by graphviz version 2.36.0 (20140111.2315)
 -->
<!-- Title: /home/travis/build/robotology&#45;playground/human&#45;dynamics&#45;estimation/build/human&#45;state&#45;provider/autogenerated/include/thrifts/HumanState.h Pages: 1 -->
<svg width="756pt" height="296pt"
 viewBox="0.00 0.00 756.00 296.00" xmlns="http://www.w3.org/2000/svg" xmlns:xlink="http://www.w3.org/1999/xlink">
<g id="graph0" class="graph" transform="scale(1 1) rotate(0) translate(4 292)">
<title>/home/travis/build/robotology&#45;playground/human&#45;dynamics&#45;estimation/build/human&#45;state&#45;provider/autogenerated/include/thrifts/HumanState.h</title>
<!-- Node1 -->
<g id="node1" class="node"><title>Node1</title>
<polygon fill="#bfbfbf" stroke="black" points="269.5,-213 269.5,-287 412.5,-287 412.5,-213 269.5,-213"/>
<text text-anchor="start" x="277.5" y="-275" font-family="Helvetica,sans-Serif" font-size="10.00">/home/travis/build</text>
<text text-anchor="start" x="277.5" y="-264" font-family="Helvetica,sans-Serif" font-size="10.00">/robotology&#45;playground</text>
<text text-anchor="start" x="277.5" y="-253" font-family="Helvetica,sans-Serif" font-size="10.00">/human&#45;dynamics&#45;estimation</text>
<text text-anchor="start" x="277.5" y="-242" font-family="Helvetica,sans-Serif" font-size="10.00">/build/human&#45;state&#45;provider</text>
<text text-anchor="start" x="277.5" y="-231" font-family="Helvetica,sans-Serif" font-size="10.00">/autogenerated/include/thrifts</text>
<text text-anchor="middle" x="341" y="-220" font-family="Helvetica,sans-Serif" font-size="10.00">/HumanState.h</text>
</g>
<!-- Node2 -->
<g id="node2" class="node"><title>Node2</title>
<g id="a_node2"><a xlink:href="__yarp__idl___2thrifts_2humanstate_2_human_state_8cpp.html" target="_top" xlink:title="/home/travis/build\l/robotology&#45;playground\l/human&#45;dynamics&#45;estimation\l/build/human&#45;state&#45;provider\l/_yarp_idl_/thrifts/humanstate\l/HumanState.cpp">
<polygon fill="none" stroke="black" points="0,-101 0,-175 146,-175 146,-101 0,-101"/>
<text text-anchor="start" x="8" y="-163" font-family="Helvetica,sans-Serif" font-size="10.00">/home/travis/build</text>
<text text-anchor="start" x="8" y="-152" font-family="Helvetica,sans-Serif" font-size="10.00">/robotology&#45;playground</text>
<text text-anchor="start" x="8" y="-141" font-family="Helvetica,sans-Serif" font-size="10.00">/human&#45;dynamics&#45;estimation</text>
<text text-anchor="start" x="8" y="-130" font-family="Helvetica,sans-Serif" font-size="10.00">/build/human&#45;state&#45;provider</text>
<text text-anchor="start" x="8" y="-119" font-family="Helvetica,sans-Serif" font-size="10.00">/_yarp_idl_/thrifts/humanstate</text>
<text text-anchor="middle" x="73" y="-108" font-family="Helvetica,sans-Serif" font-size="10.00">/HumanState.cpp</text>
</a>
</g>
</g>
<!-- Node1&#45;&gt;Node2 -->
<g id="edge1" class="edge"><title>Node1&#45;&gt;Node2</title>
<path fill="none" stroke="midnightblue" d="M259.608,-218.068C226.944,-205.392 189.04,-190.349 155,-176 152.122,-174.787 149.193,-173.537 146.238,-172.264"/>
<polygon fill="midnightblue" stroke="midnightblue" points="258.53,-221.404 269.119,-221.75 261.057,-214.876 258.53,-221.404"/>
</g>
<!-- Node3 -->
<g id="node3" class="node"><title>Node3</title>
<g id="a_node3"><a xlink:href="autogenerated_2src_2_human_state_8cpp.html" target="_top" xlink:title="/home/travis/build\l/robotology&#45;playground\l/human&#45;dynamics&#45;estimation\l/build/human&#45;state&#45;provider\l/autogenerated/src/HumanState.cpp">
<polygon fill="none" stroke="black" points="164,-106.5 164,-169.5 338,-169.5 338,-106.5 164,-106.5"/>
<text text-anchor="start" x="172" y="-157.5" font-family="Helvetica,sans-Serif" font-size="10.00">/home/travis/build</text>
<text text-anchor="start" x="172" y="-146.5" font-family="Helvetica,sans-Serif" font-size="10.00">/robotology&#45;playground</text>
<text text-anchor="start" x="172" y="-135.5" font-family="Helvetica,sans-Serif" font-size="10.00">/human&#45;dynamics&#45;estimation</text>
<text text-anchor="start" x="172" y="-124.5" font-family="Helvetica,sans-Serif" font-size="10.00">/build/human&#45;state&#45;provider</text>
<text text-anchor="middle" x="251" y="-113.5" font-family="Helvetica,sans-Serif" font-size="10.00">/autogenerated/src/HumanState.cpp</text>
</a>
</g>
</g>
<!-- Node1&#45;&gt;Node3 -->
<g id="edge2" class="edge"><title>Node1&#45;&gt;Node3</title>
<path fill="none" stroke="midnightblue" d="M304.932,-204.917C295.235,-193.065 284.96,-180.507 276.01,-169.568"/>
<polygon fill="midnightblue" stroke="midnightblue" points="302.489,-207.459 311.531,-212.982 307.907,-203.026 302.489,-207.459"/>
</g>
<!-- Node4 -->
<g id="node4" class="node"><title>Node4</title>
<g id="a_node4"><a xlink:href="_human_forces_provider_8h.html" target="_top" xlink:title="/home/travis/build\l/robotology&#45;playground\l/human&#45;dynamics&#45;estimation\l/human&#45;forces&#45;provider/include\l/HumanForcesProvider.h">
<polygon fill="none" stroke="black" points="356,-106.5 356,-169.5 506,-169.5 506,-106.5 356,-106.5"/>
<text text-anchor="start" x="364" y="-157.5" font-family="Helvetica,sans-Serif" font-size="10.00">/home/travis/build</text>
<text text-anchor="start" x="364" y="-146.5" font-family="Helvetica,sans-Serif" font-size="10.00">/robotology&#45;playground</text>
<text text-anchor="start" x="364" y="-135.5" font-family="Helvetica,sans-Serif" font-size="10.00">/human&#45;dynamics&#45;estimation</text>
<text text-anchor="start" x="364" y="-124.5" font-family="Helvetica,sans-Serif" font-size="10.00">/human&#45;forces&#45;provider/include</text>
<text text-anchor="middle" x="431" y="-113.5" font-family="Helvetica,sans-Serif" font-size="10.00">/HumanForcesProvider.h</text>
</a>
</g>
</g>
<!-- Node1&#45;&gt;Node4 -->
<g id="edge3" class="edge"><title>Node1&#45;&gt;Node4</title>
<path fill="none" stroke="midnightblue" d="M377.068,-204.917C386.765,-193.065 397.04,-180.507 405.99,-169.568"/>
<polygon fill="midnightblue" stroke="midnightblue" points="374.093,-203.026 370.469,-212.982 379.511,-207.459 374.093,-203.026"/>
</g>
<!-- Node7 -->
<g id="node7" class="node"><title>Node7</title>
<g id="a_node7"><a xlink:href="_robot_frame_transformer_8h.html" target="_top" xlink:title="/home/travis/build\l/robotology&#45;playground\l/human&#45;dynamics&#45;estimation\l/human&#45;forces&#45;provider/include\l/RobotFrameTransformer.h">
<polygon fill="none" stroke="black" points="524,-106.5 524,-169.5 674,-169.5 674,-106.5 524,-106.5"/>
<text text-anchor="start" x="532" y="-157.5" font-family="Helvetica,sans-Serif" font-size="10.00">/home/travis/build</text>
<text text-anchor="start" x="532" y="-146.5" font-family="Helvetica,sans-Serif" font-size="10.00">/robotology&#45;playground</text>
<text text-anchor="start" x="532" y="-135.5" font-family="Helvetica,sans-Serif" font-size="10.00">/human&#45;dynamics&#45;estimation</text>
<text text-anchor="start" x="532" y="-124.5" font-family="Helvetica,sans-Serif" font-size="10.00">/human&#45;forces&#45;provider/include</text>
<text text-anchor="middle" x="599" y="-113.5" font-family="Helvetica,sans-Serif" font-size="10.00">/RobotFrameTransformer.h</text>
</a>
</g>
</g>
<!-- Node1&#45;&gt;Node7 -->
<g id="edge6" class="edge"><title>Node1&#45;&gt;Node7</title>
<path fill="none" stroke="midnightblue" d="M421.912,-215.08C450.979,-202.835 483.989,-188.863 514,-176 518.882,-173.908 523.917,-171.74 528.986,-169.551"/>
<polygon fill="midnightblue" stroke="midnightblue" points="420.48,-211.885 412.621,-218.991 423.196,-218.337 420.48,-211.885"/>
</g>
<!-- Node5 -->
<g id="node5" class="node"><title>Node5</title>
<g id="a_node5"><a xlink:href="_human_forces_provider_8cpp.html" target="_top" xlink:title="/home/travis/build\l/robotology&#45;playground\l/human&#45;dynamics&#45;estimation\l/human&#45;forces&#45;provider/src\l/HumanForcesProvider.cpp">
<polygon fill="none" stroke="black" points="443,-0.5 443,-63.5 585,-63.5 585,-0.5 443,-0.5"/>
<text text-anchor="start" x="451" y="-51.5" font-family="Helvetica,sans-Serif" font-size="10.00">/home/travis/build</text>
<text text-anchor="start" x="451" y="-40.5" font-family="Helvetica,sans-Serif" font-size="10.00">/robotology&#45;playground</text>
<text text-anchor="start" x="451" y="-29.5" font-family="Helvetica,sans-Serif" font-size="10.00">/human&#45;dynamics&#45;estimation</text>
<text text-anchor="start" x="451" y="-18.5" font-family="Helvetica,sans-Serif" font-size="10.00">/human&#45;forces&#45;provider/src</text>
<text text-anchor="middle" x="514" y="-7.5" font-family="Helvetica,sans-Serif" font-size="10.00">/HumanForcesProvider.cpp</text>
</a>
</g>
</g>
<!-- Node4&#45;&gt;Node5 -->
<g id="edge4" class="edge"><title>Node4&#45;&gt;Node5</title>
<path fill="none" stroke="midnightblue" d="M461.913,-98.2662C470.996,-86.8845 480.805,-74.5942 489.434,-63.7813"/>
<polygon fill="midnightblue" stroke="midnightblue" points="458.956,-96.3598 455.454,-106.359 464.427,-100.726 458.956,-96.3598"/>
</g>
<!-- Node6 -->
<g id="node6" class="node"><title>Node6</title>
<g id="a_node6"><a xlink:href="human-forces-provider_2src_2main_8cpp.html" target="_top" xlink:title="/home/travis/build\l/robotology&#45;playground\l/human&#45;dynamics&#45;estimation\l/human&#45;forces&#45;provider/src\l/main.cpp">
<polygon fill="none" stroke="black" points="283,-0.5 283,-63.5 425,-63.5 425,-0.5 283,-0.5"/>
<text text-anchor="start" x="291" y="-51.5" font-family="Helvetica,sans-Serif" font-size="10.00">/home/travis/build</text>
<text text-anchor="start" x="291" y="-40.5" font-family="Helvetica,sans-Serif" font-size="10.00">/robotology&#45;playground</text>
<text text-anchor="start" x="291" y="-29.5" font-family="Helvetica,sans-Serif" font-size="10.00">/human&#45;dynamics&#45;estimation</text>
<text text-anchor="start" x="291" y="-18.5" font-family="Helvetica,sans-Serif" font-size="10.00">/human&#45;forces&#45;provider/src</text>
<text text-anchor="middle" x="354" y="-7.5" font-family="Helvetica,sans-Serif" font-size="10.00">/main.cpp</text>
</a>
</g>
</g>
<!-- Node4&#45;&gt;Node6 -->
<g id="edge5" class="edge"><title>Node4&#45;&gt;Node6</title>
<path fill="none" stroke="midnightblue" d="M402.322,-98.2662C393.895,-86.8845 384.796,-74.5942 376.79,-63.7813"/>
<polygon fill="midnightblue" stroke="midnightblue" points="399.551,-100.405 408.314,-106.359 405.176,-96.2394 399.551,-100.405"/>
</g>
<!-- Node7&#45;&gt;Node5 -->
<g id="edge7" class="edge"><title>Node7&#45;&gt;Node5</title>
<path fill="none" stroke="midnightblue" d="M567.613,-98.5974C558.235,-87.1233 548.081,-74.6991 539.158,-63.7813"/>
<polygon fill="midnightblue" stroke="midnightblue" points="564.919,-100.831 573.957,-106.359 570.339,-96.4012 564.919,-100.831"/>
</g>
<!-- Node8 -->
<g id="node8" class="node"><title>Node8</title>
<g id="a_node8"><a xlink:href="_robot_frame_transformer_8cpp.html" target="_top" xlink:title="/home/travis/build\l/robotology&#45;playground\l/human&#45;dynamics&#45;estimation\l/human&#45;forces&#45;provider/src\l/RobotFrameTransformer.cpp">
<polygon fill="none" stroke="black" points="603.5,-0.5 603.5,-63.5 748.5,-63.5 748.5,-0.5 603.5,-0.5"/>
<text text-anchor="start" x="611.5" y="-51.5" font-family="Helvetica,sans-Serif" font-size="10.00">/home/travis/build</text>
<text text-anchor="start" x="611.5" y="-40.5" font-family="Helvetica,sans-Serif" font-size="10.00">/robotology&#45;playground</text>
<text text-anchor="start" x="611.5" y="-29.5" font-family="Helvetica,sans-Serif" font-size="10.00">/human&#45;dynamics&#45;estimation</text>
<text text-anchor="start" x="611.5" y="-18.5" font-family="Helvetica,sans-Serif" font-size="10.00">/human&#45;forces&#45;provider/src</text>
<text text-anchor="middle" x="676" y="-7.5" font-family="Helvetica,sans-Serif" font-size="10.00">/RobotFrameTransformer.cpp</text>
</a>
</g>
</g>
<!-- Node7&#45;&gt;Node8 -->
<g id="edge8" class="edge"><title>Node7&#45;&gt;Node8</title>
<path fill="none" stroke="midnightblue" d="M627.678,-98.2662C636.105,-86.8845 645.204,-74.5942 653.21,-63.7813"/>
<polygon fill="midnightblue" stroke="midnightblue" points="624.824,-96.2394 621.686,-106.359 630.449,-100.405 624.824,-96.2394"/>
</g>
</g>
</svg>
