<?xml version="1.0" encoding="UTF-8" standalone="no"?>
<!DOCTYPE svg PUBLIC "-//W3C//DTD SVG 1.1//EN"
 "http://www.w3.org/Graphics/SVG/1.1/DTD/svg11.dtd">
<!-- Generated by graphviz version 2.36.0 (20140111.2315)
 -->
<!-- Title: human::HumanState::Editor Pages: 1 -->
<svg width="144pt" height="490pt"
 viewBox="0.00 0.00 144.00 490.00" xmlns="http://www.w3.org/2000/svg" xmlns:xlink="http://www.w3.org/1999/xlink">
<g id="graph0" class="graph" transform="scale(1 1) rotate(0) translate(4 486)">
<title>human::HumanState::Editor</title>
<!-- Node1 -->
<g id="node1" class="node"><title>Node1</title>
<polygon fill="#bfbfbf" stroke="black" points="-0.5,-0.5 -0.5,-387.5 136.5,-387.5 136.5,-0.5 -0.5,-0.5"/>
<text text-anchor="start" x="7.5" y="-375.5" font-family="Helvetica,sans-Serif" font-size="10.00">human::HumanState::</text>
<text text-anchor="middle" x="68" y="-364.5" font-family="Helvetica,sans-Serif" font-size="10.00">Editor</text>
<polyline fill="none" stroke="black" points="-0.5,-357.5 136.5,-357.5 "/>
<text text-anchor="start" x="7.5" y="-345.5" font-family="Helvetica,sans-Serif" font-size="10.00">&#45; obj</text>
<text text-anchor="start" x="7.5" y="-334.5" font-family="Helvetica,sans-Serif" font-size="10.00">&#45; obj_owned</text>
<text text-anchor="start" x="7.5" y="-323.5" font-family="Helvetica,sans-Serif" font-size="10.00">&#45; group</text>
<text text-anchor="start" x="7.5" y="-312.5" font-family="Helvetica,sans-Serif" font-size="10.00">&#45; is_dirty</text>
<text text-anchor="start" x="7.5" y="-301.5" font-family="Helvetica,sans-Serif" font-size="10.00">&#45; dirty_count</text>
<text text-anchor="start" x="7.5" y="-290.5" font-family="Helvetica,sans-Serif" font-size="10.00">&#45; is_dirty_positions</text>
<text text-anchor="start" x="7.5" y="-279.5" font-family="Helvetica,sans-Serif" font-size="10.00">&#45; is_dirty_velocities</text>
<text text-anchor="start" x="7.5" y="-268.5" font-family="Helvetica,sans-Serif" font-size="10.00">&#45; is_dirty_accelerations</text>
<polyline fill="none" stroke="black" points="-0.5,-261.5 136.5,-261.5 "/>
<text text-anchor="start" x="7.5" y="-249.5" font-family="Helvetica,sans-Serif" font-size="10.00">+ Editor()</text>
<text text-anchor="start" x="7.5" y="-238.5" font-family="Helvetica,sans-Serif" font-size="10.00">+ Editor()</text>
<text text-anchor="start" x="7.5" y="-227.5" font-family="Helvetica,sans-Serif" font-size="10.00">+ edit()</text>
<text text-anchor="start" x="7.5" y="-216.5" font-family="Helvetica,sans-Serif" font-size="10.00">+ ~Editor()</text>
<text text-anchor="start" x="7.5" y="-205.5" font-family="Helvetica,sans-Serif" font-size="10.00">+ isValid()</text>
<text text-anchor="start" x="7.5" y="-194.5" font-family="Helvetica,sans-Serif" font-size="10.00">+ state()</text>
<text text-anchor="start" x="7.5" y="-183.5" font-family="Helvetica,sans-Serif" font-size="10.00">+ begin()</text>
<text text-anchor="start" x="7.5" y="-172.5" font-family="Helvetica,sans-Serif" font-size="10.00">+ end()</text>
<text text-anchor="start" x="7.5" y="-161.5" font-family="Helvetica,sans-Serif" font-size="10.00">+ set_positions()</text>
<text text-anchor="start" x="7.5" y="-150.5" font-family="Helvetica,sans-Serif" font-size="10.00">+ set_velocities()</text>
<text text-anchor="start" x="7.5" y="-139.5" font-family="Helvetica,sans-Serif" font-size="10.00">and 36 more...</text>
<text text-anchor="start" x="7.5" y="-128.5" font-family="Helvetica,sans-Serif" font-size="10.00">&#45; communicate()</text>
<text text-anchor="start" x="7.5" y="-117.5" font-family="Helvetica,sans-Serif" font-size="10.00">&#45; mark_dirty()</text>
<text text-anchor="start" x="7.5" y="-106.5" font-family="Helvetica,sans-Serif" font-size="10.00">&#45; mark_dirty_positions()</text>
<text text-anchor="start" x="7.5" y="-95.5" font-family="Helvetica,sans-Serif" font-size="10.00">&#45; mark_dirty_velocities()</text>
<text text-anchor="start" x="7.5" y="-84.5" font-family="Helvetica,sans-Serif" font-size="10.00">&#45; mark_dirty_accelerations()</text>
<text text-anchor="start" x="7.5" y="-73.5" font-family="Helvetica,sans-Serif" font-size="10.00">&#45; dirty_flags()</text>
<text text-anchor="start" x="7.5" y="-62.5" font-family="Helvetica,sans-Serif" font-size="10.00">&#45; communicate()</text>
<text text-anchor="start" x="7.5" y="-51.5" font-family="Helvetica,sans-Serif" font-size="10.00">&#45; mark_dirty()</text>
<text text-anchor="start" x="7.5" y="-40.5" font-family="Helvetica,sans-Serif" font-size="10.00">&#45; mark_dirty_positions()</text>
<text text-anchor="start" x="7.5" y="-29.5" font-family="Helvetica,sans-Serif" font-size="10.00">&#45; mark_dirty_velocities()</text>
<text text-anchor="start" x="7.5" y="-18.5" font-family="Helvetica,sans-Serif" font-size="10.00">&#45; mark_dirty_accelerations()</text>
<text text-anchor="start" x="7.5" y="-7.5" font-family="Helvetica,sans-Serif" font-size="10.00">&#45; dirty_flags()</text>
</g>
<!-- Node2 -->
<g id="node2" class="node"><title>Node2</title>
<g id="a_node2"><a xlink:href="classyarp_1_1os_1_1_wire.html" target="_top" xlink:title="{Wire\n||}">
<polygon fill="none" stroke="black" points="16.5,-424.5 16.5,-481.5 53.5,-481.5 53.5,-424.5 16.5,-424.5"/>
<text text-anchor="middle" x="35" y="-469.5" font-family="Helvetica,sans-Serif" font-size="10.00">Wire</text>
<polyline fill="none" stroke="black" points="16.5,-462.5 53.5,-462.5 "/>
<text text-anchor="middle" x="35" y="-450.5" font-family="Helvetica,sans-Serif" font-size="10.00"> </text>
<polyline fill="none" stroke="black" points="16.5,-443.5 53.5,-443.5 "/>
<text text-anchor="middle" x="35" y="-431.5" font-family="Helvetica,sans-Serif" font-size="10.00"> </text>
</a>
</g>
</g>
<!-- Node2&#45;&gt;Node1 -->
<g id="edge1" class="edge"><title>Node2&#45;&gt;Node1</title>
<path fill="none" stroke="midnightblue" d="M34.8835,-414.464C35.5203,-406.379 36.3503,-397.308 37.3315,-387.578"/>
<polygon fill="none" stroke="midnightblue" points="31.3884,-414.271 34.1612,-424.496 38.3703,-414.774 31.3884,-414.271"/>
</g>
<!-- Node2&#45;&gt;Node1 -->
<g id="edge3" class="edge"><title>Node2&#45;&gt;Node1</title>
<path fill="none" stroke="midnightblue" d="M44.7562,-414.464C46.1957,-406.379 47.6952,-397.308 49.2127,-387.578"/>
<polygon fill="none" stroke="midnightblue" points="41.2777,-414.027 42.9019,-424.496 48.1611,-415.299 41.2777,-414.027"/>
</g>
<!-- Node3 -->
<g id="node3" class="node"><title>Node3</title>
<g id="a_node3"><a xlink:href="classyarp_1_1os_1_1_port_writer.html" target="_top" xlink:title="{PortWriter\n||}">
<polygon fill="none" stroke="black" points="71.5,-424.5 71.5,-481.5 132.5,-481.5 132.5,-424.5 71.5,-424.5"/>
<text text-anchor="middle" x="102" y="-469.5" font-family="Helvetica,sans-Serif" font-size="10.00">PortWriter</text>
<polyline fill="none" stroke="black" points="71.5,-462.5 132.5,-462.5 "/>
<text text-anchor="middle" x="102" y="-450.5" font-family="Helvetica,sans-Serif" font-size="10.00"> </text>
<polyline fill="none" stroke="black" points="71.5,-443.5 132.5,-443.5 "/>
<text text-anchor="middle" x="102" y="-431.5" font-family="Helvetica,sans-Serif" font-size="10.00"> </text>
</a>
</g>
</g>
<!-- Node3&#45;&gt;Node1 -->
<g id="edge2" class="edge"><title>Node3&#45;&gt;Node1</title>
<path fill="none" stroke="midnightblue" d="M92.0977,-414.464C90.6268,-406.379 89.092,-397.308 87.5367,-387.578"/>
<polygon fill="none" stroke="midnightblue" points="88.6973,-415.319 93.991,-424.496 95.5759,-414.021 88.6973,-415.319"/>
</g>
<!-- Node3&#45;&gt;Node1 -->
<g id="edge4" class="edge"><title>Node3&#45;&gt;Node1</title>
<path fill="none" stroke="midnightblue" d="M101.97,-414.464C101.302,-406.379 100.437,-397.308 99.4179,-387.578"/>
<polygon fill="none" stroke="midnightblue" points="98.4851,-414.79 102.732,-424.496 105.465,-414.26 98.4851,-414.79"/>
</g>
</g>
</svg>
