<?xml version="1.0" encoding="UTF-8" standalone="no"?>
<!DOCTYPE svg PUBLIC "-//W3C//DTD SVG 1.1//EN"
 "http://www.w3.org/Graphics/SVG/1.1/DTD/svg11.dtd">
<!-- Generated by graphviz version 2.36.0 (20140111.2315)
 -->
<!-- Title: human::HumanForces::Editor Pages: 1 -->
<svg width="340pt" height="424pt"
 viewBox="0.00 0.00 340.00 424.00" xmlns="http://www.w3.org/2000/svg" xmlns:xlink="http://www.w3.org/1999/xlink">
<g id="graph0" class="graph" transform="scale(1 1) rotate(0) translate(4 420)">
<title>human::HumanForces::Editor</title>
<!-- Node1 -->
<g id="node1" class="node"><title>Node1</title>
<polygon fill="#bfbfbf" stroke="black" points="134.5,-0.5 134.5,-321.5 247.5,-321.5 247.5,-0.5 134.5,-0.5"/>
<text text-anchor="start" x="142.5" y="-309.5" font-family="Helvetica,sans-Serif" font-size="10.00">human::HumanForces</text>
<text text-anchor="middle" x="191" y="-298.5" font-family="Helvetica,sans-Serif" font-size="10.00">::Editor</text>
<polyline fill="none" stroke="black" points="134.5,-291.5 247.5,-291.5 "/>
<text text-anchor="start" x="142.5" y="-279.5" font-family="Helvetica,sans-Serif" font-size="10.00">&#45; obj</text>
<text text-anchor="start" x="142.5" y="-268.5" font-family="Helvetica,sans-Serif" font-size="10.00">&#45; obj_owned</text>
<text text-anchor="start" x="142.5" y="-257.5" font-family="Helvetica,sans-Serif" font-size="10.00">&#45; group</text>
<text text-anchor="start" x="142.5" y="-246.5" font-family="Helvetica,sans-Serif" font-size="10.00">&#45; is_dirty</text>
<text text-anchor="start" x="142.5" y="-235.5" font-family="Helvetica,sans-Serif" font-size="10.00">&#45; dirty_count</text>
<text text-anchor="start" x="142.5" y="-224.5" font-family="Helvetica,sans-Serif" font-size="10.00">&#45; is_dirty_forces</text>
<polyline fill="none" stroke="black" points="134.5,-217.5 247.5,-217.5 "/>
<text text-anchor="start" x="142.5" y="-205.5" font-family="Helvetica,sans-Serif" font-size="10.00">+ Editor()</text>
<text text-anchor="start" x="142.5" y="-194.5" font-family="Helvetica,sans-Serif" font-size="10.00">+ Editor()</text>
<text text-anchor="start" x="142.5" y="-183.5" font-family="Helvetica,sans-Serif" font-size="10.00">+ edit()</text>
<text text-anchor="start" x="142.5" y="-172.5" font-family="Helvetica,sans-Serif" font-size="10.00">+ ~Editor()</text>
<text text-anchor="start" x="142.5" y="-161.5" font-family="Helvetica,sans-Serif" font-size="10.00">+ isValid()</text>
<text text-anchor="start" x="142.5" y="-150.5" font-family="Helvetica,sans-Serif" font-size="10.00">+ state()</text>
<text text-anchor="start" x="142.5" y="-139.5" font-family="Helvetica,sans-Serif" font-size="10.00">+ begin()</text>
<text text-anchor="start" x="142.5" y="-128.5" font-family="Helvetica,sans-Serif" font-size="10.00">+ end()</text>
<text text-anchor="start" x="142.5" y="-117.5" font-family="Helvetica,sans-Serif" font-size="10.00">+ set_forces()</text>
<text text-anchor="start" x="142.5" y="-106.5" font-family="Helvetica,sans-Serif" font-size="10.00">+ set_forces()</text>
<text text-anchor="start" x="142.5" y="-95.5" font-family="Helvetica,sans-Serif" font-size="10.00">and 22 more...</text>
<text text-anchor="start" x="142.5" y="-84.5" font-family="Helvetica,sans-Serif" font-size="10.00">&#45; communicate()</text>
<text text-anchor="start" x="142.5" y="-73.5" font-family="Helvetica,sans-Serif" font-size="10.00">&#45; mark_dirty()</text>
<text text-anchor="start" x="142.5" y="-62.5" font-family="Helvetica,sans-Serif" font-size="10.00">&#45; mark_dirty_forces()</text>
<text text-anchor="start" x="142.5" y="-51.5" font-family="Helvetica,sans-Serif" font-size="10.00">&#45; dirty_flags()</text>
<text text-anchor="start" x="142.5" y="-40.5" font-family="Helvetica,sans-Serif" font-size="10.00">&#45; communicate()</text>
<text text-anchor="start" x="142.5" y="-29.5" font-family="Helvetica,sans-Serif" font-size="10.00">&#45; mark_dirty()</text>
<text text-anchor="start" x="142.5" y="-18.5" font-family="Helvetica,sans-Serif" font-size="10.00">&#45; mark_dirty_forces()</text>
<text text-anchor="start" x="142.5" y="-7.5" font-family="Helvetica,sans-Serif" font-size="10.00">&#45; dirty_flags()</text>
</g>
<!-- Node2 -->
<g id="node2" class="node"><title>Node2</title>
<g id="a_node2"><a xlink:href="classyarp_1_1os_1_1_wire.html" target="_top" xlink:title="{yarp::os::Wire\n||}">
<polygon fill="none" stroke="black" points="0,-358.5 0,-415.5 78,-415.5 78,-358.5 0,-358.5"/>
<text text-anchor="middle" x="39" y="-403.5" font-family="Helvetica,sans-Serif" font-size="10.00">yarp::os::Wire</text>
<polyline fill="none" stroke="black" points="0,-396.5 78,-396.5 "/>
<text text-anchor="middle" x="39" y="-384.5" font-family="Helvetica,sans-Serif" font-size="10.00"> </text>
<polyline fill="none" stroke="black" points="0,-377.5 78,-377.5 "/>
<text text-anchor="middle" x="39" y="-365.5" font-family="Helvetica,sans-Serif" font-size="10.00"> </text>
</a>
</g>
</g>
<!-- Node2&#45;&gt;Node1 -->
<g id="edge1" class="edge"><title>Node2&#45;&gt;Node1</title>
<path fill="none" stroke="midnightblue" d="M63.6019,-349.745C82.7183,-321.573 109.999,-281.37 134.414,-245.389"/>
<polygon fill="none" stroke="midnightblue" points="60.6625,-347.843 57.9436,-358.083 66.4548,-351.774 60.6625,-347.843"/>
</g>
<!-- Node3 -->
<g id="node3" class="node"><title>Node3</title>
<g id="a_node3"><a xlink:href="classyarp_1_1os_1_1_port_writer.html" target="_top" xlink:title="{yarp::os::PortWriter\n||}">
<polygon fill="none" stroke="black" points="96,-358.5 96,-415.5 198,-415.5 198,-358.5 96,-358.5"/>
<text text-anchor="middle" x="147" y="-403.5" font-family="Helvetica,sans-Serif" font-size="10.00">yarp::os::PortWriter</text>
<polyline fill="none" stroke="black" points="96,-396.5 198,-396.5 "/>
<text text-anchor="middle" x="147" y="-384.5" font-family="Helvetica,sans-Serif" font-size="10.00"> </text>
<polyline fill="none" stroke="black" points="96,-377.5 198,-377.5 "/>
<text text-anchor="middle" x="147" y="-365.5" font-family="Helvetica,sans-Serif" font-size="10.00"> </text>
</a>
</g>
</g>
<!-- Node3&#45;&gt;Node1 -->
<g id="edge2" class="edge"><title>Node3&#45;&gt;Node1</title>
<path fill="none" stroke="midnightblue" d="M154.43,-348.175C155.993,-340.218 157.734,-331.354 159.585,-321.931"/>
<polygon fill="none" stroke="midnightblue" points="150.977,-347.596 152.484,-358.083 157.846,-348.945 150.977,-347.596"/>
</g>
<!-- Node4 -->
<g id="node4" class="node"><title>Node4</title>
<g id="a_node4"><a xlink:href="classyarp_1_1os_1_1_wire.html" target="_top" xlink:title="{Wire\n||}">
<polygon fill="none" stroke="black" points="216.5,-358.5 216.5,-415.5 253.5,-415.5 253.5,-358.5 216.5,-358.5"/>
<text text-anchor="middle" x="235" y="-403.5" font-family="Helvetica,sans-Serif" font-size="10.00">Wire</text>
<polyline fill="none" stroke="black" points="216.5,-396.5 253.5,-396.5 "/>
<text text-anchor="middle" x="235" y="-384.5" font-family="Helvetica,sans-Serif" font-size="10.00"> </text>
<polyline fill="none" stroke="black" points="216.5,-377.5 253.5,-377.5 "/>
<text text-anchor="middle" x="235" y="-365.5" font-family="Helvetica,sans-Serif" font-size="10.00"> </text>
</a>
</g>
</g>
<!-- Node4&#45;&gt;Node1 -->
<g id="edge3" class="edge"><title>Node4&#45;&gt;Node1</title>
<path fill="none" stroke="midnightblue" d="M227.57,-348.175C226.007,-340.218 224.266,-331.354 222.415,-321.931"/>
<polygon fill="none" stroke="midnightblue" points="224.154,-348.945 229.516,-358.083 231.023,-347.596 224.154,-348.945"/>
</g>
<!-- Node5 -->
<g id="node5" class="node"><title>Node5</title>
<g id="a_node5"><a xlink:href="classyarp_1_1os_1_1_port_writer.html" target="_top" xlink:title="{PortWriter\n||}">
<polygon fill="none" stroke="black" points="271.5,-358.5 271.5,-415.5 332.5,-415.5 332.5,-358.5 271.5,-358.5"/>
<text text-anchor="middle" x="302" y="-403.5" font-family="Helvetica,sans-Serif" font-size="10.00">PortWriter</text>
<polyline fill="none" stroke="black" points="271.5,-396.5 332.5,-396.5 "/>
<text text-anchor="middle" x="302" y="-384.5" font-family="Helvetica,sans-Serif" font-size="10.00"> </text>
<polyline fill="none" stroke="black" points="271.5,-377.5 332.5,-377.5 "/>
<text text-anchor="middle" x="302" y="-365.5" font-family="Helvetica,sans-Serif" font-size="10.00"> </text>
</a>
</g>
</g>
<!-- Node5&#45;&gt;Node1 -->
<g id="edge4" class="edge"><title>Node5&#45;&gt;Node1</title>
<path fill="none" stroke="midnightblue" d="M283.64,-348.948C273.614,-328.717 260.601,-302.457 247.513,-276.045"/>
<polygon fill="none" stroke="midnightblue" points="280.59,-350.677 288.166,-358.083 286.862,-347.569 280.59,-350.677"/>
</g>
</g>
</svg>
