<?xml version="1.0" encoding="UTF-8" standalone="no"?>
<!DOCTYPE svg PUBLIC "-//W3C//DTD SVG 1.1//EN"
 "http://www.w3.org/Graphics/SVG/1.1/DTD/svg11.dtd">
<!-- Generated by graphviz version 2.36.0 (20140111.2315)
 -->
<!-- Title: human::HumanState::Editor Pages: 1 -->
<svg width="468pt" height="830pt"
 viewBox="0.00 0.00 468.00 830.00" xmlns="http://www.w3.org/2000/svg" xmlns:xlink="http://www.w3.org/1999/xlink">
<g id="graph0" class="graph" transform="scale(1 1) rotate(0) translate(4 826)">
<title>human::HumanState::Editor</title>
<!-- Node1 -->
<g id="node1" class="node"><title>Node1</title>
<polygon fill="#bfbfbf" stroke="black" points="16.5,-1 16.5,-311 153.5,-311 153.5,-1 16.5,-1"/>
<text text-anchor="start" x="24.5" y="-299" font-family="Helvetica,sans-Serif" font-size="10.00">human::HumanState::</text>
<text text-anchor="middle" x="85" y="-288" font-family="Helvetica,sans-Serif" font-size="10.00">Editor</text>
<polyline fill="none" stroke="black" points="16.5,-281 153.5,-281 "/>
<text text-anchor="middle" x="85" y="-269" font-family="Helvetica,sans-Serif" font-size="10.00"> </text>
<polyline fill="none" stroke="black" points="16.5,-262 153.5,-262 "/>
<text text-anchor="start" x="24.5" y="-250" font-family="Helvetica,sans-Serif" font-size="10.00">+ Editor()</text>
<text text-anchor="start" x="24.5" y="-239" font-family="Helvetica,sans-Serif" font-size="10.00">+ Editor()</text>
<text text-anchor="start" x="24.5" y="-228" font-family="Helvetica,sans-Serif" font-size="10.00">+ edit()</text>
<text text-anchor="start" x="24.5" y="-217" font-family="Helvetica,sans-Serif" font-size="10.00">+ ~Editor()</text>
<text text-anchor="start" x="24.5" y="-206" font-family="Helvetica,sans-Serif" font-size="10.00">+ isValid()</text>
<text text-anchor="start" x="24.5" y="-195" font-family="Helvetica,sans-Serif" font-size="10.00">+ state()</text>
<text text-anchor="start" x="24.5" y="-184" font-family="Helvetica,sans-Serif" font-size="10.00">+ begin()</text>
<text text-anchor="start" x="24.5" y="-173" font-family="Helvetica,sans-Serif" font-size="10.00">+ end()</text>
<text text-anchor="start" x="24.5" y="-162" font-family="Helvetica,sans-Serif" font-size="10.00">+ set_positions()</text>
<text text-anchor="start" x="24.5" y="-151" font-family="Helvetica,sans-Serif" font-size="10.00">+ set_velocities()</text>
<text text-anchor="start" x="24.5" y="-140" font-family="Helvetica,sans-Serif" font-size="10.00">and 36 more...</text>
<text text-anchor="start" x="24.5" y="-129" font-family="Helvetica,sans-Serif" font-size="10.00">&#45; communicate()</text>
<text text-anchor="start" x="24.5" y="-118" font-family="Helvetica,sans-Serif" font-size="10.00">&#45; mark_dirty()</text>
<text text-anchor="start" x="24.5" y="-107" font-family="Helvetica,sans-Serif" font-size="10.00">&#45; mark_dirty_positions()</text>
<text text-anchor="start" x="24.5" y="-96" font-family="Helvetica,sans-Serif" font-size="10.00">&#45; mark_dirty_velocities()</text>
<text text-anchor="start" x="24.5" y="-85" font-family="Helvetica,sans-Serif" font-size="10.00">&#45; mark_dirty_accelerations()</text>
<text text-anchor="start" x="24.5" y="-74" font-family="Helvetica,sans-Serif" font-size="10.00">&#45; dirty_flags()</text>
<text text-anchor="start" x="24.5" y="-63" font-family="Helvetica,sans-Serif" font-size="10.00">&#45; communicate()</text>
<text text-anchor="start" x="24.5" y="-52" font-family="Helvetica,sans-Serif" font-size="10.00">&#45; mark_dirty()</text>
<text text-anchor="start" x="24.5" y="-41" font-family="Helvetica,sans-Serif" font-size="10.00">&#45; mark_dirty_positions()</text>
<text text-anchor="start" x="24.5" y="-30" font-family="Helvetica,sans-Serif" font-size="10.00">&#45; mark_dirty_velocities()</text>
<text text-anchor="start" x="24.5" y="-19" font-family="Helvetica,sans-Serif" font-size="10.00">&#45; mark_dirty_accelerations()</text>
<text text-anchor="start" x="24.5" y="-8" font-family="Helvetica,sans-Serif" font-size="10.00">&#45; dirty_flags()</text>
</g>
<!-- Node2 -->
<g id="node2" class="node"><title>Node2</title>
<g id="a_node2"><a xlink:href="classyarp_1_1os_1_1_wire.html" target="_top" xlink:title="{Wire\n||}">
<polygon fill="none" stroke="black" points="-0.5,-520.5 -0.5,-577.5 36.5,-577.5 36.5,-520.5 -0.5,-520.5"/>
<text text-anchor="middle" x="18" y="-565.5" font-family="Helvetica,sans-Serif" font-size="10.00">Wire</text>
<polyline fill="none" stroke="black" points="-0.5,-558.5 36.5,-558.5 "/>
<text text-anchor="middle" x="18" y="-546.5" font-family="Helvetica,sans-Serif" font-size="10.00"> </text>
<polyline fill="none" stroke="black" points="-0.5,-539.5 36.5,-539.5 "/>
<text text-anchor="middle" x="18" y="-527.5" font-family="Helvetica,sans-Serif" font-size="10.00"> </text>
</a>
</g>
</g>
<!-- Node2&#45;&gt;Node1 -->
<g id="edge1" class="edge"><title>Node2&#45;&gt;Node1</title>
<path fill="none" stroke="midnightblue" d="M20.2981,-510.09C26.0872,-464.087 39.0622,-383.667 51.9653,-311.185"/>
<polygon fill="none" stroke="midnightblue" points="16.8022,-509.847 19.0796,-520.194 23.7519,-510.685 16.8022,-509.847"/>
</g>
<!-- Node2&#45;&gt;Node1 -->
<g id="edge3" class="edge"><title>Node2&#45;&gt;Node1</title>
<path fill="none" stroke="midnightblue" d="M28.6311,-510.38C38.6093,-464.426 53.2315,-383.819 65.1937,-311.185"/>
<polygon fill="none" stroke="midnightblue" points="25.203,-509.672 26.45,-520.194 32.0363,-511.191 25.203,-509.672"/>
</g>
<!-- Node3 -->
<g id="node3" class="node"><title>Node3</title>
<g id="a_node3"><a xlink:href="classyarp_1_1os_1_1_port_writer.html" target="_top" xlink:title="{PortWriter\n||}">
<polygon fill="none" stroke="black" points="54.5,-520.5 54.5,-577.5 115.5,-577.5 115.5,-520.5 54.5,-520.5"/>
<text text-anchor="middle" x="85" y="-565.5" font-family="Helvetica,sans-Serif" font-size="10.00">PortWriter</text>
<polyline fill="none" stroke="black" points="54.5,-558.5 115.5,-558.5 "/>
<text text-anchor="middle" x="85" y="-546.5" font-family="Helvetica,sans-Serif" font-size="10.00"> </text>
<polyline fill="none" stroke="black" points="54.5,-539.5 115.5,-539.5 "/>
<text text-anchor="middle" x="85" y="-527.5" font-family="Helvetica,sans-Serif" font-size="10.00"> </text>
</a>
</g>
</g>
<!-- Node3&#45;&gt;Node1 -->
<g id="edge2" class="edge"><title>Node3&#45;&gt;Node1</title>
<path fill="none" stroke="midnightblue" d="M80.8021,-510.09C78.7082,-464.087 77.9028,-383.667 78.3858,-311.185"/>
<polygon fill="none" stroke="midnightblue" points="77.3124,-510.384 81.3148,-520.194 84.3034,-510.029 77.3124,-510.384"/>
</g>
<!-- Node3&#45;&gt;Node1 -->
<g id="edge4" class="edge"><title>Node3&#45;&gt;Node1</title>
<path fill="none" stroke="midnightblue" d="M89.1979,-510.09C91.2918,-464.087 92.0972,-383.667 91.6142,-311.185"/>
<polygon fill="none" stroke="midnightblue" points="85.6966,-510.029 88.6852,-520.194 92.6876,-510.384 85.6966,-510.029"/>
</g>
<!-- Node4 -->
<g id="node4" class="node"><title>Node4</title>
<g id="a_node4"><a xlink:href="classhuman_1_1_human_state.html" target="_top" xlink:title="{human::HumanState\n||+ HumanState()\l+ HumanState()\l+ HumanState()\l+ operator=()\l+ read()\l+ read()\l+ write()\l+ write()\l+ toString()\l+ HumanState()\land 8 more...\l&#45; write_positions()\l&#45; nested_write_positions()\l&#45; write_velocities()\l&#45; nested_write_velocities()\l&#45; write_accelerations()\l&#45; nested_write_accelerations()\l&#45; read_positions()\l&#45; nested_read_positions()\l&#45; read_velocities()\l&#45; nested_read_velocities()\land 14 more...\l}">
<polygon fill="none" stroke="black" points="133.5,-405 133.5,-693 280.5,-693 280.5,-405 133.5,-405"/>
<text text-anchor="middle" x="207" y="-681" font-family="Helvetica,sans-Serif" font-size="10.00">human::HumanState</text>
<polyline fill="none" stroke="black" points="133.5,-674 280.5,-674 "/>
<text text-anchor="middle" x="207" y="-662" font-family="Helvetica,sans-Serif" font-size="10.00"> </text>
<polyline fill="none" stroke="black" points="133.5,-655 280.5,-655 "/>
<text text-anchor="start" x="141.5" y="-643" font-family="Helvetica,sans-Serif" font-size="10.00">+ HumanState()</text>
<text text-anchor="start" x="141.5" y="-632" font-family="Helvetica,sans-Serif" font-size="10.00">+ HumanState()</text>
<text text-anchor="start" x="141.5" y="-621" font-family="Helvetica,sans-Serif" font-size="10.00">+ HumanState()</text>
<text text-anchor="start" x="141.5" y="-610" font-family="Helvetica,sans-Serif" font-size="10.00">+ operator=()</text>
<text text-anchor="start" x="141.5" y="-599" font-family="Helvetica,sans-Serif" font-size="10.00">+ read()</text>
<text text-anchor="start" x="141.5" y="-588" font-family="Helvetica,sans-Serif" font-size="10.00">+ read()</text>
<text text-anchor="start" x="141.5" y="-577" font-family="Helvetica,sans-Serif" font-size="10.00">+ write()</text>
<text text-anchor="start" x="141.5" y="-566" font-family="Helvetica,sans-Serif" font-size="10.00">+ write()</text>
<text text-anchor="start" x="141.5" y="-555" font-family="Helvetica,sans-Serif" font-size="10.00">+ toString()</text>
<text text-anchor="start" x="141.5" y="-544" font-family="Helvetica,sans-Serif" font-size="10.00">+ HumanState()</text>
<text text-anchor="start" x="141.5" y="-533" font-family="Helvetica,sans-Serif" font-size="10.00">and 8 more...</text>
<text text-anchor="start" x="141.5" y="-522" font-family="Helvetica,sans-Serif" font-size="10.00">&#45; write_positions()</text>
<text text-anchor="start" x="141.5" y="-511" font-family="Helvetica,sans-Serif" font-size="10.00">&#45; nested_write_positions()</text>
<text text-anchor="start" x="141.5" y="-500" font-family="Helvetica,sans-Serif" font-size="10.00">&#45; write_velocities()</text>
<text text-anchor="start" x="141.5" y="-489" font-family="Helvetica,sans-Serif" font-size="10.00">&#45; nested_write_velocities()</text>
<text text-anchor="start" x="141.5" y="-478" font-family="Helvetica,sans-Serif" font-size="10.00">&#45; write_accelerations()</text>
<text text-anchor="start" x="141.5" y="-467" font-family="Helvetica,sans-Serif" font-size="10.00">&#45; nested_write_accelerations()</text>
<text text-anchor="start" x="141.5" y="-456" font-family="Helvetica,sans-Serif" font-size="10.00">&#45; read_positions()</text>
<text text-anchor="start" x="141.5" y="-445" font-family="Helvetica,sans-Serif" font-size="10.00">&#45; nested_read_positions()</text>
<text text-anchor="start" x="141.5" y="-434" font-family="Helvetica,sans-Serif" font-size="10.00">&#45; read_velocities()</text>
<text text-anchor="start" x="141.5" y="-423" font-family="Helvetica,sans-Serif" font-size="10.00">&#45; nested_read_velocities()</text>
<text text-anchor="start" x="141.5" y="-412" font-family="Helvetica,sans-Serif" font-size="10.00">and 14 more...</text>
</a>
</g>
</g>
<!-- Node4&#45;&gt;Node1 -->
<g id="edge5" class="edge"><title>Node4&#45;&gt;Node1</title>
<path fill="none" stroke="#404040" d="M162.351,-404.903C154.016,-378.192 145.242,-350.071 136.716,-322.745"/>
<polygon fill="none" stroke="#404040" points="136.653,-322.544 131.047,-318.008 133.079,-311.088 138.684,-315.625 136.653,-322.544"/>
<text text-anchor="middle" x="163.5" y="-355.5" font-family="Helvetica,sans-Serif" font-size="10.00"> &#45;obj</text>
</g>
<!-- Node5 -->
<g id="node5" class="node"><title>Node5</title>
<g id="a_node5"><a xlink:href="classyarp_1_1os_1_1idl_1_1_wire_portable.html" target="_top" xlink:title="{yarp::os::idl::WirePortable\n||}">
<polygon fill="none" stroke="black" points="22,-764.5 22,-821.5 152,-821.5 152,-764.5 22,-764.5"/>
<text text-anchor="middle" x="87" y="-809.5" font-family="Helvetica,sans-Serif" font-size="10.00">yarp::os::idl::WirePortable</text>
<polyline fill="none" stroke="black" points="22,-802.5 152,-802.5 "/>
<text text-anchor="middle" x="87" y="-790.5" font-family="Helvetica,sans-Serif" font-size="10.00"> </text>
<polyline fill="none" stroke="black" points="22,-783.5 152,-783.5 "/>
<text text-anchor="middle" x="87" y="-771.5" font-family="Helvetica,sans-Serif" font-size="10.00"> </text>
</a>
</g>
</g>
<!-- Node5&#45;&gt;Node4 -->
<g id="edge6" class="edge"><title>Node5&#45;&gt;Node4</title>
<path fill="none" stroke="midnightblue" d="M105.29,-755.115C113.871,-737.811 124.704,-715.964 136.079,-693.024"/>
<polygon fill="none" stroke="midnightblue" points="102.072,-753.726 100.766,-764.24 108.344,-756.835 102.072,-753.726"/>
</g>
<!-- Node6 -->
<g id="node6" class="node"><title>Node6</title>
<g id="a_node6"><a xlink:href="classyarp_1_1os_1_1idl_1_1_wire_portable.html" target="_top" xlink:title="{WirePortable\n||}">
<polygon fill="none" stroke="black" points="170.5,-764.5 170.5,-821.5 243.5,-821.5 243.5,-764.5 170.5,-764.5"/>
<text text-anchor="middle" x="207" y="-809.5" font-family="Helvetica,sans-Serif" font-size="10.00">WirePortable</text>
<polyline fill="none" stroke="black" points="170.5,-802.5 243.5,-802.5 "/>
<text text-anchor="middle" x="207" y="-790.5" font-family="Helvetica,sans-Serif" font-size="10.00"> </text>
<polyline fill="none" stroke="black" points="170.5,-783.5 243.5,-783.5 "/>
<text text-anchor="middle" x="207" y="-771.5" font-family="Helvetica,sans-Serif" font-size="10.00"> </text>
</a>
</g>
</g>
<!-- Node6&#45;&gt;Node4 -->
<g id="edge7" class="edge"><title>Node6&#45;&gt;Node4</title>
<path fill="none" stroke="midnightblue" d="M207,-754.149C207,-737.002 207,-715.539 207,-693.024"/>
<polygon fill="none" stroke="midnightblue" points="203.5,-754.239 207,-764.24 210.5,-754.24 203.5,-754.239"/>
</g>
<!-- Node7 -->
<g id="node7" class="node"><title>Node7</title>
<polygon fill="none" stroke="#bfbfbf" points="261.5,-764.5 261.5,-821.5 306.5,-821.5 306.5,-764.5 261.5,-764.5"/>
<text text-anchor="middle" x="284" y="-809.5" font-family="Helvetica,sans-Serif" font-size="10.00">Vector</text>
<polyline fill="none" stroke="#bfbfbf" points="261.5,-802.5 306.5,-802.5 "/>
<text text-anchor="middle" x="284" y="-790.5" font-family="Helvetica,sans-Serif" font-size="10.00"> </text>
<polyline fill="none" stroke="#bfbfbf" points="261.5,-783.5 306.5,-783.5 "/>
<text text-anchor="middle" x="284" y="-771.5" font-family="Helvetica,sans-Serif" font-size="10.00"> </text>
</g>
<!-- Node7&#45;&gt;Node4 -->
<g id="edge8" class="edge"><title>Node7&#45;&gt;Node4</title>
<path fill="none" stroke="#404040" d="M275.167,-764.24C270.166,-748.521 263.469,-727.475 256.222,-704.699"/>
<polygon fill="none" stroke="#404040" points="256.146,-704.459 250.515,-699.954 252.508,-693.024 258.139,-697.529 256.146,-704.459"/>
<text text-anchor="middle" x="302" y="-737.5" font-family="Helvetica,sans-Serif" font-size="10.00"> +positions</text>
<text text-anchor="middle" x="302" y="-726.5" font-family="Helvetica,sans-Serif" font-size="10.00">+accelerations</text>
<text text-anchor="middle" x="302" y="-715.5" font-family="Helvetica,sans-Serif" font-size="10.00">+velocities</text>
</g>
<!-- Node8 -->
<g id="node8" class="node"><title>Node8</title>
<polygon fill="none" stroke="#bfbfbf" points="298.5,-520.5 298.5,-577.5 327.5,-577.5 327.5,-520.5 298.5,-520.5"/>
<text text-anchor="middle" x="313" y="-565.5" font-family="Helvetica,sans-Serif" font-size="10.00">int</text>
<polyline fill="none" stroke="#bfbfbf" points="298.5,-558.5 327.5,-558.5 "/>
<text text-anchor="middle" x="313" y="-546.5" font-family="Helvetica,sans-Serif" font-size="10.00"> </text>
<polyline fill="none" stroke="#bfbfbf" points="298.5,-539.5 327.5,-539.5 "/>
<text text-anchor="middle" x="313" y="-527.5" font-family="Helvetica,sans-Serif" font-size="10.00"> </text>
</g>
<!-- Node8&#45;&gt;Node1 -->
<g id="edge9" class="edge"><title>Node8&#45;&gt;Node1</title>
<path fill="none" stroke="#404040" d="M312.61,-520.228C311.242,-490.281 306.242,-441.821 289,-404 258.873,-337.917 206.401,-274.983 162.22,-229.179"/>
<polygon fill="none" stroke="#404040" points="162.17,-229.129 155.117,-227.629 153.789,-220.541 160.842,-222.041 162.17,-229.129"/>
<text text-anchor="middle" x="305.5" y="-361" font-family="Helvetica,sans-Serif" font-size="10.00"> &#45;dirty_count</text>
<text text-anchor="middle" x="305.5" y="-350" font-family="Helvetica,sans-Serif" font-size="10.00">&#45;group</text>
</g>
<!-- Node9 -->
<g id="node9" class="node"><title>Node9</title>
<polygon fill="none" stroke="#bfbfbf" points="359.5,-520.5 359.5,-577.5 394.5,-577.5 394.5,-520.5 359.5,-520.5"/>
<text text-anchor="middle" x="377" y="-565.5" font-family="Helvetica,sans-Serif" font-size="10.00">bool</text>
<polyline fill="none" stroke="#bfbfbf" points="359.5,-558.5 394.5,-558.5 "/>
<text text-anchor="middle" x="377" y="-546.5" font-family="Helvetica,sans-Serif" font-size="10.00"> </text>
<polyline fill="none" stroke="#bfbfbf" points="359.5,-539.5 394.5,-539.5 "/>
<text text-anchor="middle" x="377" y="-527.5" font-family="Helvetica,sans-Serif" font-size="10.00"> </text>
</g>
<!-- Node9&#45;&gt;Node1 -->
<g id="edge10" class="edge"><title>Node9&#45;&gt;Node1</title>
<path fill="none" stroke="#404040" d="M378.422,-520.422C379.354,-476.505 375.628,-389.565 337,-330 295.633,-266.211 221.642,-219.637 164.499,-190.988"/>
<polygon fill="none" stroke="#404040" points="164.445,-190.962 157.296,-191.908 153.673,-185.673 160.822,-184.727 164.445,-190.962"/>
<text text-anchor="middle" x="411" y="-377.5" font-family="Helvetica,sans-Serif" font-size="10.00"> &#45;is_dirty</text>
<text text-anchor="middle" x="411" y="-366.5" font-family="Helvetica,sans-Serif" font-size="10.00">&#45;obj_owned</text>
<text text-anchor="middle" x="411" y="-355.5" font-family="Helvetica,sans-Serif" font-size="10.00">&#45;is_dirty_accelerations</text>
<text text-anchor="middle" x="411" y="-344.5" font-family="Helvetica,sans-Serif" font-size="10.00">&#45;is_dirty_velocities</text>
<text text-anchor="middle" x="411" y="-333.5" font-family="Helvetica,sans-Serif" font-size="10.00">&#45;is_dirty_positions</text>
</g>
</g>
</svg>
