<?xml version="1.0" encoding="UTF-8" standalone="no"?>
<!DOCTYPE svg PUBLIC "-//W3C//DTD SVG 1.1//EN"
 "http://www.w3.org/Graphics/SVG/1.1/DTD/svg11.dtd">
<!-- Generated by graphviz version 2.36.0 (20140111.2315)
 -->
<!-- Title: human::HumanForces::Editor Pages: 1 -->
<svg width="706pt" height="708pt"
 viewBox="0.00 0.00 706.00 708.00" xmlns="http://www.w3.org/2000/svg" xmlns:xlink="http://www.w3.org/1999/xlink">
<g id="graph0" class="graph" transform="scale(1 1) rotate(0) translate(4 704)">
<title>human::HumanForces::Editor</title>
<!-- Node1 -->
<g id="node1" class="node"><title>Node1</title>
<polygon fill="#bfbfbf" stroke="black" points="245.5,-1 245.5,-267 358.5,-267 358.5,-1 245.5,-1"/>
<text text-anchor="start" x="253.5" y="-255" font-family="Helvetica,sans-Serif" font-size="10.00">human::HumanForces</text>
<text text-anchor="middle" x="302" y="-244" font-family="Helvetica,sans-Serif" font-size="10.00">::Editor</text>
<polyline fill="none" stroke="black" points="245.5,-237 358.5,-237 "/>
<text text-anchor="middle" x="302" y="-225" font-family="Helvetica,sans-Serif" font-size="10.00"> </text>
<polyline fill="none" stroke="black" points="245.5,-218 358.5,-218 "/>
<text text-anchor="start" x="253.5" y="-206" font-family="Helvetica,sans-Serif" font-size="10.00">+ Editor()</text>
<text text-anchor="start" x="253.5" y="-195" font-family="Helvetica,sans-Serif" font-size="10.00">+ Editor()</text>
<text text-anchor="start" x="253.5" y="-184" font-family="Helvetica,sans-Serif" font-size="10.00">+ edit()</text>
<text text-anchor="start" x="253.5" y="-173" font-family="Helvetica,sans-Serif" font-size="10.00">+ ~Editor()</text>
<text text-anchor="start" x="253.5" y="-162" font-family="Helvetica,sans-Serif" font-size="10.00">+ isValid()</text>
<text text-anchor="start" x="253.5" y="-151" font-family="Helvetica,sans-Serif" font-size="10.00">+ state()</text>
<text text-anchor="start" x="253.5" y="-140" font-family="Helvetica,sans-Serif" font-size="10.00">+ begin()</text>
<text text-anchor="start" x="253.5" y="-129" font-family="Helvetica,sans-Serif" font-size="10.00">+ end()</text>
<text text-anchor="start" x="253.5" y="-118" font-family="Helvetica,sans-Serif" font-size="10.00">+ set_forces()</text>
<text text-anchor="start" x="253.5" y="-107" font-family="Helvetica,sans-Serif" font-size="10.00">+ set_forces()</text>
<text text-anchor="start" x="253.5" y="-96" font-family="Helvetica,sans-Serif" font-size="10.00">and 22 more...</text>
<text text-anchor="start" x="253.5" y="-85" font-family="Helvetica,sans-Serif" font-size="10.00">&#45; communicate()</text>
<text text-anchor="start" x="253.5" y="-74" font-family="Helvetica,sans-Serif" font-size="10.00">&#45; mark_dirty()</text>
<text text-anchor="start" x="253.5" y="-63" font-family="Helvetica,sans-Serif" font-size="10.00">&#45; mark_dirty_forces()</text>
<text text-anchor="start" x="253.5" y="-52" font-family="Helvetica,sans-Serif" font-size="10.00">&#45; dirty_flags()</text>
<text text-anchor="start" x="253.5" y="-41" font-family="Helvetica,sans-Serif" font-size="10.00">&#45; communicate()</text>
<text text-anchor="start" x="253.5" y="-30" font-family="Helvetica,sans-Serif" font-size="10.00">&#45; mark_dirty()</text>
<text text-anchor="start" x="253.5" y="-19" font-family="Helvetica,sans-Serif" font-size="10.00">&#45; mark_dirty_forces()</text>
<text text-anchor="start" x="253.5" y="-8" font-family="Helvetica,sans-Serif" font-size="10.00">&#45; dirty_flags()</text>
</g>
<!-- Node2 -->
<g id="node2" class="node"><title>Node2</title>
<g id="a_node2"><a xlink:href="classyarp_1_1os_1_1_wire.html" target="_top" xlink:title="{yarp::os::Wire\n||}">
<polygon fill="none" stroke="black" points="0,-437.5 0,-494.5 78,-494.5 78,-437.5 0,-437.5"/>
<text text-anchor="middle" x="39" y="-482.5" font-family="Helvetica,sans-Serif" font-size="10.00">yarp::os::Wire</text>
<polyline fill="none" stroke="black" points="0,-475.5 78,-475.5 "/>
<text text-anchor="middle" x="39" y="-463.5" font-family="Helvetica,sans-Serif" font-size="10.00"> </text>
<polyline fill="none" stroke="black" points="0,-456.5 78,-456.5 "/>
<text text-anchor="middle" x="39" y="-444.5" font-family="Helvetica,sans-Serif" font-size="10.00"> </text>
</a>
</g>
</g>
<!-- Node2&#45;&gt;Node1 -->
<g id="edge1" class="edge"><title>Node2&#45;&gt;Node1</title>
<path fill="none" stroke="midnightblue" d="M48.2748,-427.628C55.9645,-401.145 68.6317,-365.569 87,-338 130.123,-273.277 197.504,-214.064 245.329,-176.508"/>
<polygon fill="none" stroke="midnightblue" points="44.8935,-426.723 45.5699,-437.296 51.6347,-428.609 44.8935,-426.723"/>
</g>
<!-- Node3 -->
<g id="node3" class="node"><title>Node3</title>
<g id="a_node3"><a xlink:href="classyarp_1_1os_1_1_port_writer.html" target="_top" xlink:title="{yarp::os::PortWriter\n||}">
<polygon fill="none" stroke="black" points="96,-437.5 96,-494.5 198,-494.5 198,-437.5 96,-437.5"/>
<text text-anchor="middle" x="147" y="-482.5" font-family="Helvetica,sans-Serif" font-size="10.00">yarp::os::PortWriter</text>
<polyline fill="none" stroke="black" points="96,-475.5 198,-475.5 "/>
<text text-anchor="middle" x="147" y="-463.5" font-family="Helvetica,sans-Serif" font-size="10.00"> </text>
<polyline fill="none" stroke="black" points="96,-456.5 198,-456.5 "/>
<text text-anchor="middle" x="147" y="-444.5" font-family="Helvetica,sans-Serif" font-size="10.00"> </text>
</a>
</g>
</g>
<!-- Node3&#45;&gt;Node1 -->
<g id="edge2" class="edge"><title>Node3&#45;&gt;Node1</title>
<path fill="none" stroke="midnightblue" d="M164.27,-428.232C183.836,-386.575 216.743,-316.514 245.486,-255.32"/>
<polygon fill="none" stroke="midnightblue" points="161.032,-426.893 159.949,-437.432 167.368,-429.869 161.032,-426.893"/>
</g>
<!-- Node4 -->
<g id="node4" class="node"><title>Node4</title>
<g id="a_node4"><a xlink:href="classyarp_1_1os_1_1_wire.html" target="_top" xlink:title="{Wire\n||}">
<polygon fill="none" stroke="black" points="216.5,-437.5 216.5,-494.5 253.5,-494.5 253.5,-437.5 216.5,-437.5"/>
<text text-anchor="middle" x="235" y="-482.5" font-family="Helvetica,sans-Serif" font-size="10.00">Wire</text>
<polyline fill="none" stroke="black" points="216.5,-475.5 253.5,-475.5 "/>
<text text-anchor="middle" x="235" y="-463.5" font-family="Helvetica,sans-Serif" font-size="10.00"> </text>
<polyline fill="none" stroke="black" points="216.5,-456.5 253.5,-456.5 "/>
<text text-anchor="middle" x="235" y="-444.5" font-family="Helvetica,sans-Serif" font-size="10.00"> </text>
</a>
</g>
</g>
<!-- Node4&#45;&gt;Node1 -->
<g id="edge3" class="edge"><title>Node4&#45;&gt;Node1</title>
<path fill="none" stroke="midnightblue" d="M242.598,-427.579C250.518,-388.568 263.391,-325.162 275.132,-267.333"/>
<polygon fill="none" stroke="midnightblue" points="239.157,-426.936 240.597,-437.432 246.017,-428.328 239.157,-426.936"/>
</g>
<!-- Node5 -->
<g id="node5" class="node"><title>Node5</title>
<g id="a_node5"><a xlink:href="classyarp_1_1os_1_1_port_writer.html" target="_top" xlink:title="{PortWriter\n||}">
<polygon fill="none" stroke="black" points="271.5,-437.5 271.5,-494.5 332.5,-494.5 332.5,-437.5 271.5,-437.5"/>
<text text-anchor="middle" x="302" y="-482.5" font-family="Helvetica,sans-Serif" font-size="10.00">PortWriter</text>
<polyline fill="none" stroke="black" points="271.5,-475.5 332.5,-475.5 "/>
<text text-anchor="middle" x="302" y="-463.5" font-family="Helvetica,sans-Serif" font-size="10.00"> </text>
<polyline fill="none" stroke="black" points="271.5,-456.5 332.5,-456.5 "/>
<text text-anchor="middle" x="302" y="-444.5" font-family="Helvetica,sans-Serif" font-size="10.00"> </text>
</a>
</g>
</g>
<!-- Node5&#45;&gt;Node1 -->
<g id="edge4" class="edge"><title>Node5&#45;&gt;Node1</title>
<path fill="none" stroke="midnightblue" d="M302,-427.08C302,-388.028 302,-324.916 302,-267.333"/>
<polygon fill="none" stroke="midnightblue" points="298.5,-427.432 302,-437.432 305.5,-427.432 298.5,-427.432"/>
</g>
<!-- Node6 -->
<g id="node6" class="node"><title>Node6</title>
<polygon fill="none" stroke="#bfbfbf" points="350.5,-437.5 350.5,-494.5 379.5,-494.5 379.5,-437.5 350.5,-437.5"/>
<text text-anchor="middle" x="365" y="-482.5" font-family="Helvetica,sans-Serif" font-size="10.00">int</text>
<polyline fill="none" stroke="#bfbfbf" points="350.5,-475.5 379.5,-475.5 "/>
<text text-anchor="middle" x="365" y="-463.5" font-family="Helvetica,sans-Serif" font-size="10.00"> </text>
<polyline fill="none" stroke="#bfbfbf" points="350.5,-456.5 379.5,-456.5 "/>
<text text-anchor="middle" x="365" y="-444.5" font-family="Helvetica,sans-Serif" font-size="10.00"> </text>
</g>
<!-- Node6&#45;&gt;Node1 -->
<g id="edge5" class="edge"><title>Node6&#45;&gt;Node1</title>
<path fill="none" stroke="#404040" d="M359.781,-437.248C354.935,-411.516 347.51,-372.166 341,-338 337.367,-318.934 333.529,-298.864 329.733,-279.065"/>
<polygon fill="none" stroke="#404040" points="329.702,-278.903 324.644,-273.764 327.442,-267.118 332.501,-272.257 329.702,-278.903"/>
<text text-anchor="middle" x="364.5" y="-306" font-family="Helvetica,sans-Serif" font-size="10.00"> &#45;dirty_count</text>
<text text-anchor="middle" x="364.5" y="-295" font-family="Helvetica,sans-Serif" font-size="10.00">&#45;group</text>
</g>
<!-- Node7 -->
<g id="node7" class="node"><title>Node7</title>
<polygon fill="none" stroke="#bfbfbf" points="397.5,-437.5 397.5,-494.5 432.5,-494.5 432.5,-437.5 397.5,-437.5"/>
<text text-anchor="middle" x="415" y="-482.5" font-family="Helvetica,sans-Serif" font-size="10.00">bool</text>
<polyline fill="none" stroke="#bfbfbf" points="397.5,-475.5 432.5,-475.5 "/>
<text text-anchor="middle" x="415" y="-463.5" font-family="Helvetica,sans-Serif" font-size="10.00"> </text>
<polyline fill="none" stroke="#bfbfbf" points="397.5,-456.5 432.5,-456.5 "/>
<text text-anchor="middle" x="415" y="-444.5" font-family="Helvetica,sans-Serif" font-size="10.00"> </text>
</g>
<!-- Node7&#45;&gt;Node1 -->
<g id="edge6" class="edge"><title>Node7&#45;&gt;Node1</title>
<path fill="none" stroke="#404040" d="M415.14,-437.211C414.528,-401.316 410.723,-337.351 393,-286 385.923,-265.494 375.789,-244.768 364.834,-225.516"/>
<polygon fill="none" stroke="#404040" points="364.733,-225.343 358.252,-222.182 358.678,-214.983 365.159,-218.145 364.733,-225.343"/>
<text text-anchor="middle" x="436.5" y="-311.5" font-family="Helvetica,sans-Serif" font-size="10.00"> &#45;is_dirty</text>
<text text-anchor="middle" x="436.5" y="-300.5" font-family="Helvetica,sans-Serif" font-size="10.00">&#45;obj_owned</text>
<text text-anchor="middle" x="436.5" y="-289.5" font-family="Helvetica,sans-Serif" font-size="10.00">&#45;is_dirty_forces</text>
</g>
<!-- Node8 -->
<g id="node8" class="node"><title>Node8</title>
<g id="a_node8"><a xlink:href="classhuman_1_1_human_forces.html" target="_top" xlink:title="{human::HumanForces\n||+ HumanForces()\l+ HumanForces()\l+ HumanForces()\l+ operator=()\l+ read()\l+ read()\l+ write()\l+ write()\l+ toString()\l+ HumanForces()\land 8 more...\l&#45; write_forces()\l&#45; nested_write_forces()\l&#45; read_forces()\l&#45; nested_read_forces()\l&#45; write_forces()\l&#45; nested_write_forces()\l&#45; read_forces()\l&#45; nested_read_forces()\l}">
<polygon fill="none" stroke="black" points="451,-338.5 451,-593.5 567,-593.5 567,-338.5 451,-338.5"/>
<text text-anchor="middle" x="509" y="-581.5" font-family="Helvetica,sans-Serif" font-size="10.00">human::HumanForces</text>
<polyline fill="none" stroke="black" points="451,-574.5 567,-574.5 "/>
<text text-anchor="middle" x="509" y="-562.5" font-family="Helvetica,sans-Serif" font-size="10.00"> </text>
<polyline fill="none" stroke="black" points="451,-555.5 567,-555.5 "/>
<text text-anchor="start" x="459" y="-543.5" font-family="Helvetica,sans-Serif" font-size="10.00">+ HumanForces()</text>
<text text-anchor="start" x="459" y="-532.5" font-family="Helvetica,sans-Serif" font-size="10.00">+ HumanForces()</text>
<text text-anchor="start" x="459" y="-521.5" font-family="Helvetica,sans-Serif" font-size="10.00">+ HumanForces()</text>
<text text-anchor="start" x="459" y="-510.5" font-family="Helvetica,sans-Serif" font-size="10.00">+ operator=()</text>
<text text-anchor="start" x="459" y="-499.5" font-family="Helvetica,sans-Serif" font-size="10.00">+ read()</text>
<text text-anchor="start" x="459" y="-488.5" font-family="Helvetica,sans-Serif" font-size="10.00">+ read()</text>
<text text-anchor="start" x="459" y="-477.5" font-family="Helvetica,sans-Serif" font-size="10.00">+ write()</text>
<text text-anchor="start" x="459" y="-466.5" font-family="Helvetica,sans-Serif" font-size="10.00">+ write()</text>
<text text-anchor="start" x="459" y="-455.5" font-family="Helvetica,sans-Serif" font-size="10.00">+ toString()</text>
<text text-anchor="start" x="459" y="-444.5" font-family="Helvetica,sans-Serif" font-size="10.00">+ HumanForces()</text>
<text text-anchor="start" x="459" y="-433.5" font-family="Helvetica,sans-Serif" font-size="10.00">and 8 more...</text>
<text text-anchor="start" x="459" y="-422.5" font-family="Helvetica,sans-Serif" font-size="10.00">&#45; write_forces()</text>
<text text-anchor="start" x="459" y="-411.5" font-family="Helvetica,sans-Serif" font-size="10.00">&#45; nested_write_forces()</text>
<text text-anchor="start" x="459" y="-400.5" font-family="Helvetica,sans-Serif" font-size="10.00">&#45; read_forces()</text>
<text text-anchor="start" x="459" y="-389.5" font-family="Helvetica,sans-Serif" font-size="10.00">&#45; nested_read_forces()</text>
<text text-anchor="start" x="459" y="-378.5" font-family="Helvetica,sans-Serif" font-size="10.00">&#45; write_forces()</text>
<text text-anchor="start" x="459" y="-367.5" font-family="Helvetica,sans-Serif" font-size="10.00">&#45; nested_write_forces()</text>
<text text-anchor="start" x="459" y="-356.5" font-family="Helvetica,sans-Serif" font-size="10.00">&#45; read_forces()</text>
<text text-anchor="start" x="459" y="-345.5" font-family="Helvetica,sans-Serif" font-size="10.00">&#45; nested_read_forces()</text>
</a>
</g>
</g>
<!-- Node8&#45;&gt;Node1 -->
<g id="edge7" class="edge"><title>Node8&#45;&gt;Node1</title>
<path fill="none" stroke="#404040" d="M495.131,-338.445C490.072,-320.127 483.232,-302.06 474,-286 448.659,-241.915 405.673,-204.173 369.016,-177.448"/>
<polygon fill="none" stroke="#404040" points="368.634,-177.175 361.426,-176.947 358.865,-170.206 366.072,-170.434 368.634,-177.175"/>
<text text-anchor="middle" x="497.5" y="-300.5" font-family="Helvetica,sans-Serif" font-size="10.00"> &#45;obj</text>
</g>
<!-- Node9 -->
<g id="node9" class="node"><title>Node9</title>
<g id="a_node9"><a xlink:href="classyarp_1_1os_1_1idl_1_1_wire_portable.html" target="_top" xlink:title="{WirePortable\n||}">
<polygon fill="none" stroke="black" points="472.5,-642.5 472.5,-699.5 545.5,-699.5 545.5,-642.5 472.5,-642.5"/>
<text text-anchor="middle" x="509" y="-687.5" font-family="Helvetica,sans-Serif" font-size="10.00">WirePortable</text>
<polyline fill="none" stroke="black" points="472.5,-680.5 545.5,-680.5 "/>
<text text-anchor="middle" x="509" y="-668.5" font-family="Helvetica,sans-Serif" font-size="10.00"> </text>
<polyline fill="none" stroke="black" points="472.5,-661.5 545.5,-661.5 "/>
<text text-anchor="middle" x="509" y="-649.5" font-family="Helvetica,sans-Serif" font-size="10.00"> </text>
</a>
</g>
</g>
<!-- Node9&#45;&gt;Node8 -->
<g id="edge8" class="edge"><title>Node9&#45;&gt;Node8</title>
<path fill="none" stroke="midnightblue" d="M503.592,-631.881C503.031,-620.517 502.646,-607.386 502.437,-593.594"/>
<polygon fill="none" stroke="midnightblue" points="500.117,-632.416 504.183,-642.199 507.105,-632.015 500.117,-632.416"/>
</g>
<!-- Node9&#45;&gt;Node8 -->
<g id="edge9" class="edge"><title>Node9&#45;&gt;Node8</title>
<path fill="none" stroke="midnightblue" d="M514.408,-631.881C514.969,-620.517 515.354,-607.386 515.563,-593.594"/>
<polygon fill="none" stroke="midnightblue" points="510.895,-632.015 513.817,-642.199 517.883,-632.416 510.895,-632.015"/>
</g>
<!-- Node10 -->
<g id="node10" class="node"><title>Node10</title>
<polygon fill="none" stroke="#bfbfbf" points="564,-642.5 564,-699.5 698,-699.5 698,-642.5 564,-642.5"/>
<text text-anchor="middle" x="631" y="-687.5" font-family="Helvetica,sans-Serif" font-size="10.00">vector&lt; human::Force6D &gt;</text>
<polyline fill="none" stroke="#bfbfbf" points="564,-680.5 698,-680.5 "/>
<text text-anchor="middle" x="631" y="-668.5" font-family="Helvetica,sans-Serif" font-size="10.00"> </text>
<polyline fill="none" stroke="#bfbfbf" points="564,-661.5 698,-661.5 "/>
<text text-anchor="middle" x="631" y="-649.5" font-family="Helvetica,sans-Serif" font-size="10.00"> </text>
</g>
<!-- Node10&#45;&gt;Node8 -->
<g id="edge10" class="edge"><title>Node10&#45;&gt;Node8</title>
<path fill="none" stroke="#404040" d="M614.292,-642.199C603.452,-624.162 588.562,-599.386 573.392,-574.144"/>
<polygon fill="none" stroke="#404040" points="573.297,-573.986 566.778,-570.904 567.116,-563.701 573.635,-566.783 573.297,-573.986"/>
<text text-anchor="middle" x="619.5" y="-615.5" font-family="Helvetica,sans-Serif" font-size="10.00"> +forces</text>
</g>
</g>
</svg>
