<?xml version="1.0" encoding="UTF-8" standalone="no"?>
<!DOCTYPE svg PUBLIC "-//W3C//DTD SVG 1.1//EN"
 "http://www.w3.org/Graphics/SVG/1.1/DTD/svg11.dtd">
<!-- Generated by graphviz version 2.36.0 (20140111.2315)
 -->
<!-- Title: HumanDynamicsEstimator Pages: 1 -->
<svg width="252pt" height="216pt"
 viewBox="0.00 0.00 252.00 216.00" xmlns="http://www.w3.org/2000/svg" xmlns:xlink="http://www.w3.org/1999/xlink">
<g id="graph0" class="graph" transform="scale(1 1) rotate(0) translate(4 212)">
<title>HumanDynamicsEstimator</title>
<!-- Node1 -->
<g id="node1" class="node"><title>Node1</title>
<polygon fill="#bfbfbf" stroke="black" points="68,-0.5 68,-101.5 202,-101.5 202,-0.5 68,-0.5"/>
<text text-anchor="middle" x="135" y="-89.5" font-family="Helvetica,sans-Serif" font-size="10.00">HumanDynamicsEstimator</text>
<polyline fill="none" stroke="black" points="68,-82.5 202,-82.5 "/>
<text text-anchor="middle" x="135" y="-70.5" font-family="Helvetica,sans-Serif" font-size="10.00"> </text>
<polyline fill="none" stroke="black" points="68,-63.5 202,-63.5 "/>
<text text-anchor="start" x="76" y="-51.5" font-family="Helvetica,sans-Serif" font-size="10.00">+ getPeriod()</text>
<text text-anchor="start" x="76" y="-40.5" font-family="Helvetica,sans-Serif" font-size="10.00">+ configure()</text>
<text text-anchor="start" x="76" y="-29.5" font-family="Helvetica,sans-Serif" font-size="10.00">+ updateModule()</text>
<text text-anchor="start" x="76" y="-18.5" font-family="Helvetica,sans-Serif" font-size="10.00">+ interruptModule()</text>
<text text-anchor="start" x="76" y="-7.5" font-family="Helvetica,sans-Serif" font-size="10.00">+ close()</text>
</g>
<!-- Node2 -->
<g id="node2" class="node"><title>Node2</title>
<g id="a_node2"><a xlink:href="classyarp_1_1os_1_1_r_f_module.html" target="_top" xlink:title="{yarp::os::RFModule\n||}">
<polygon fill="none" stroke="black" points="-0.5,-150.5 -0.5,-207.5 102.5,-207.5 102.5,-150.5 -0.5,-150.5"/>
<text text-anchor="middle" x="51" y="-195.5" font-family="Helvetica,sans-Serif" font-size="10.00">yarp::os::RFModule</text>
<polyline fill="none" stroke="black" points="-0.5,-188.5 102.5,-188.5 "/>
<text text-anchor="middle" x="51" y="-176.5" font-family="Helvetica,sans-Serif" font-size="10.00"> </text>
<polyline fill="none" stroke="black" points="-0.5,-169.5 102.5,-169.5 "/>
<text text-anchor="middle" x="51" y="-157.5" font-family="Helvetica,sans-Serif" font-size="10.00"> </text>
</a>
</g>
</g>
<!-- Node2&#45;&gt;Node1 -->
<g id="edge1" class="edge"><title>Node2&#45;&gt;Node1</title>
<path fill="none" stroke="midnightblue" d="M75.016,-141.976C83.3802,-129.43 92.9176,-115.124 101.888,-101.668"/>
<polygon fill="none" stroke="midnightblue" points="72.069,-140.087 69.4342,-150.349 77.8934,-143.97 72.069,-140.087"/>
</g>
<!-- Node3 -->
<g id="node3" class="node"><title>Node3</title>
<polygon fill="none" stroke="#bfbfbf" points="120.5,-150.5 120.5,-207.5 149.5,-207.5 149.5,-150.5 120.5,-150.5"/>
<text text-anchor="middle" x="135" y="-195.5" font-family="Helvetica,sans-Serif" font-size="10.00">int</text>
<polyline fill="none" stroke="#bfbfbf" points="120.5,-188.5 149.5,-188.5 "/>
<text text-anchor="middle" x="135" y="-176.5" font-family="Helvetica,sans-Serif" font-size="10.00"> </text>
<polyline fill="none" stroke="#bfbfbf" points="120.5,-169.5 149.5,-169.5 "/>
<text text-anchor="middle" x="135" y="-157.5" font-family="Helvetica,sans-Serif" font-size="10.00"> </text>
</g>
<!-- Node3&#45;&gt;Node1 -->
<g id="edge2" class="edge"><title>Node3&#45;&gt;Node1</title>
<path fill="none" stroke="#404040" d="M135,-150.349C135,-139.534 135,-126.664 135,-113.858"/>
<polygon fill="none" stroke="#404040" points="135,-113.668 131,-107.668 135,-101.668 139,-107.668 135,-113.668"/>
<text text-anchor="middle" x="150.5" y="-123.5" font-family="Helvetica,sans-Serif" font-size="10.00"> &#45;count</text>
</g>
<!-- Node4 -->
<g id="node4" class="node"><title>Node4</title>
<polygon fill="none" stroke="#bfbfbf" points="168.5,-150.5 168.5,-207.5 209.5,-207.5 209.5,-150.5 168.5,-150.5"/>
<text text-anchor="middle" x="189" y="-195.5" font-family="Helvetica,sans-Serif" font-size="10.00">string</text>
<polyline fill="none" stroke="#bfbfbf" points="168.5,-188.5 209.5,-188.5 "/>
<text text-anchor="middle" x="189" y="-176.5" font-family="Helvetica,sans-Serif" font-size="10.00"> </text>
<polyline fill="none" stroke="#bfbfbf" points="168.5,-169.5 209.5,-169.5 "/>
<text text-anchor="middle" x="189" y="-157.5" font-family="Helvetica,sans-Serif" font-size="10.00"> </text>
</g>
<!-- Node4&#45;&gt;Node1 -->
<g id="edge3" class="edge"><title>Node4&#45;&gt;Node1</title>
<path fill="none" stroke="#404040" d="M179.024,-150.388C175.397,-140.713 171.164,-129.815 167,-120 165.965,-117.56 164.893,-115.079 163.796,-112.58"/>
<polygon fill="none" stroke="#404040" points="163.768,-112.518 157.666,-108.675 158.866,-101.565 164.968,-105.407 163.768,-112.518"/>
<text text-anchor="middle" x="207.5" y="-123.5" font-family="Helvetica,sans-Serif" font-size="10.00"> &#45;modelFilename</text>
</g>
</g>
</svg>
