<?xml version="1.0" encoding="UTF-8" standalone="no"?>
<!DOCTYPE svg PUBLIC "-//W3C//DTD SVG 1.1//EN"
 "http://www.w3.org/Graphics/SVG/1.1/DTD/svg11.dtd">
<!-- Generated by graphviz version 2.36.0 (20140111.2315)
 -->
<!-- Title: human::HumanState Pages: 1 -->
<svg width="320pt" height="426pt"
 viewBox="0.00 0.00 320.00 426.00" xmlns="http://www.w3.org/2000/svg" xmlns:xlink="http://www.w3.org/1999/xlink">
<g id="graph0" class="graph" transform="scale(1 1) rotate(0) translate(4 422)">
<title>human::HumanState</title>
<!-- Node1 -->
<g id="node1" class="node"><title>Node1</title>
<polygon fill="#bfbfbf" stroke="black" points="111.5,-1 111.5,-289 258.5,-289 258.5,-1 111.5,-1"/>
<text text-anchor="middle" x="185" y="-277" font-family="Helvetica,sans-Serif" font-size="10.00">human::HumanState</text>
<polyline fill="none" stroke="black" points="111.5,-270 258.5,-270 "/>
<text text-anchor="middle" x="185" y="-258" font-family="Helvetica,sans-Serif" font-size="10.00"> </text>
<polyline fill="none" stroke="black" points="111.5,-251 258.5,-251 "/>
<text text-anchor="start" x="119.5" y="-239" font-family="Helvetica,sans-Serif" font-size="10.00">+ HumanState()</text>
<text text-anchor="start" x="119.5" y="-228" font-family="Helvetica,sans-Serif" font-size="10.00">+ HumanState()</text>
<text text-anchor="start" x="119.5" y="-217" font-family="Helvetica,sans-Serif" font-size="10.00">+ HumanState()</text>
<text text-anchor="start" x="119.5" y="-206" font-family="Helvetica,sans-Serif" font-size="10.00">+ operator=()</text>
<text text-anchor="start" x="119.5" y="-195" font-family="Helvetica,sans-Serif" font-size="10.00">+ read()</text>
<text text-anchor="start" x="119.5" y="-184" font-family="Helvetica,sans-Serif" font-size="10.00">+ read()</text>
<text text-anchor="start" x="119.5" y="-173" font-family="Helvetica,sans-Serif" font-size="10.00">+ write()</text>
<text text-anchor="start" x="119.5" y="-162" font-family="Helvetica,sans-Serif" font-size="10.00">+ write()</text>
<text text-anchor="start" x="119.5" y="-151" font-family="Helvetica,sans-Serif" font-size="10.00">+ toString()</text>
<text text-anchor="start" x="119.5" y="-140" font-family="Helvetica,sans-Serif" font-size="10.00">+ HumanState()</text>
<text text-anchor="start" x="119.5" y="-129" font-family="Helvetica,sans-Serif" font-size="10.00">and 8 more...</text>
<text text-anchor="start" x="119.5" y="-118" font-family="Helvetica,sans-Serif" font-size="10.00">&#45; write_positions()</text>
<text text-anchor="start" x="119.5" y="-107" font-family="Helvetica,sans-Serif" font-size="10.00">&#45; nested_write_positions()</text>
<text text-anchor="start" x="119.5" y="-96" font-family="Helvetica,sans-Serif" font-size="10.00">&#45; write_velocities()</text>
<text text-anchor="start" x="119.5" y="-85" font-family="Helvetica,sans-Serif" font-size="10.00">&#45; nested_write_velocities()</text>
<text text-anchor="start" x="119.5" y="-74" font-family="Helvetica,sans-Serif" font-size="10.00">&#45; write_accelerations()</text>
<text text-anchor="start" x="119.5" y="-63" font-family="Helvetica,sans-Serif" font-size="10.00">&#45; nested_write_accelerations()</text>
<text text-anchor="start" x="119.5" y="-52" font-family="Helvetica,sans-Serif" font-size="10.00">&#45; read_positions()</text>
<text text-anchor="start" x="119.5" y="-41" font-family="Helvetica,sans-Serif" font-size="10.00">&#45; nested_read_positions()</text>
<text text-anchor="start" x="119.5" y="-30" font-family="Helvetica,sans-Serif" font-size="10.00">&#45; read_velocities()</text>
<text text-anchor="start" x="119.5" y="-19" font-family="Helvetica,sans-Serif" font-size="10.00">&#45; nested_read_velocities()</text>
<text text-anchor="start" x="119.5" y="-8" font-family="Helvetica,sans-Serif" font-size="10.00">and 14 more...</text>
</g>
<!-- Node2 -->
<g id="node2" class="node"><title>Node2</title>
<g id="a_node2"><a xlink:href="classyarp_1_1os_1_1idl_1_1_wire_portable.html" target="_top" xlink:title="{yarp::os::idl::WirePortable\n||}">
<polygon fill="none" stroke="black" points="0,-360.5 0,-417.5 130,-417.5 130,-360.5 0,-360.5"/>
<text text-anchor="middle" x="65" y="-405.5" font-family="Helvetica,sans-Serif" font-size="10.00">yarp::os::idl::WirePortable</text>
<polyline fill="none" stroke="black" points="0,-398.5 130,-398.5 "/>
<text text-anchor="middle" x="65" y="-386.5" font-family="Helvetica,sans-Serif" font-size="10.00"> </text>
<polyline fill="none" stroke="black" points="0,-379.5 130,-379.5 "/>
<text text-anchor="middle" x="65" y="-367.5" font-family="Helvetica,sans-Serif" font-size="10.00"> </text>
</a>
</g>
</g>
<!-- Node2&#45;&gt;Node1 -->
<g id="edge1" class="edge"><title>Node2&#45;&gt;Node1</title>
<path fill="none" stroke="midnightblue" d="M83.2899,-351.115C91.8705,-333.811 102.704,-311.964 114.079,-289.024"/>
<polygon fill="none" stroke="midnightblue" points="80.0724,-349.726 78.7655,-360.24 86.3437,-352.835 80.0724,-349.726"/>
</g>
<!-- Node3 -->
<g id="node3" class="node"><title>Node3</title>
<g id="a_node3"><a xlink:href="classyarp_1_1os_1_1idl_1_1_wire_portable.html" target="_top" xlink:title="{WirePortable\n||}">
<polygon fill="none" stroke="black" points="148.5,-360.5 148.5,-417.5 221.5,-417.5 221.5,-360.5 148.5,-360.5"/>
<text text-anchor="middle" x="185" y="-405.5" font-family="Helvetica,sans-Serif" font-size="10.00">WirePortable</text>
<polyline fill="none" stroke="black" points="148.5,-398.5 221.5,-398.5 "/>
<text text-anchor="middle" x="185" y="-386.5" font-family="Helvetica,sans-Serif" font-size="10.00"> </text>
<polyline fill="none" stroke="black" points="148.5,-379.5 221.5,-379.5 "/>
<text text-anchor="middle" x="185" y="-367.5" font-family="Helvetica,sans-Serif" font-size="10.00"> </text>
</a>
</g>
</g>
<!-- Node3&#45;&gt;Node1 -->
<g id="edge2" class="edge"><title>Node3&#45;&gt;Node1</title>
<path fill="none" stroke="midnightblue" d="M185,-350.149C185,-333.002 185,-311.539 185,-289.024"/>
<polygon fill="none" stroke="midnightblue" points="181.5,-350.239 185,-360.24 188.5,-350.24 181.5,-350.239"/>
</g>
<!-- Node4 -->
<g id="node4" class="node"><title>Node4</title>
<polygon fill="none" stroke="#bfbfbf" points="239.5,-360.5 239.5,-417.5 284.5,-417.5 284.5,-360.5 239.5,-360.5"/>
<text text-anchor="middle" x="262" y="-405.5" font-family="Helvetica,sans-Serif" font-size="10.00">Vector</text>
<polyline fill="none" stroke="#bfbfbf" points="239.5,-398.5 284.5,-398.5 "/>
<text text-anchor="middle" x="262" y="-386.5" font-family="Helvetica,sans-Serif" font-size="10.00"> </text>
<polyline fill="none" stroke="#bfbfbf" points="239.5,-379.5 284.5,-379.5 "/>
<text text-anchor="middle" x="262" y="-367.5" font-family="Helvetica,sans-Serif" font-size="10.00"> </text>
</g>
<!-- Node4&#45;&gt;Node1 -->
<g id="edge3" class="edge"><title>Node4&#45;&gt;Node1</title>
<path fill="none" stroke="#404040" d="M253.167,-360.24C248.166,-344.521 241.469,-323.475 234.222,-300.699"/>
<polygon fill="none" stroke="#404040" points="234.146,-300.459 228.515,-295.954 230.508,-289.024 236.139,-293.529 234.146,-300.459"/>
<text text-anchor="middle" x="280" y="-333.5" font-family="Helvetica,sans-Serif" font-size="10.00"> +positions</text>
<text text-anchor="middle" x="280" y="-322.5" font-family="Helvetica,sans-Serif" font-size="10.00">+accelerations</text>
<text text-anchor="middle" x="280" y="-311.5" font-family="Helvetica,sans-Serif" font-size="10.00">+velocities</text>
</g>
</g>
</svg>
