<?xml version="1.0" encoding="UTF-8" standalone="no"?>
<!DOCTYPE svg PUBLIC "-//W3C//DTD SVG 1.1//EN"
 "http://www.w3.org/Graphics/SVG/1.1/DTD/svg11.dtd">
<!-- Generated by graphviz version 2.36.0 (20140111.2315)
 -->
<!-- Title: Graphical Class Hierarchy Pages: 1 -->
<svg width="240pt" height="66pt"
 viewBox="0.00 0.00 240.00 66.00" xmlns="http://www.w3.org/2000/svg" xmlns:xlink="http://www.w3.org/1999/xlink">
<g id="graph0" class="graph" transform="scale(1 1) rotate(0) translate(4 62)">
<title>Graphical Class Hierarchy</title>
<!-- Node1 -->
<g id="node1" class="node"><title>Node1</title>
<g id="a_node1"><a xlink:href="classyarp_1_1os_1_1_r_f_module.html" target="_top" xlink:title="RFModule">
<polygon fill="none" stroke="black" points="0,-19.5 0,-38.5 62,-38.5 62,-19.5 0,-19.5"/>
<text text-anchor="middle" x="31" y="-26.5" font-family="Helvetica,sans-Serif" font-size="10.00">RFModule</text>
</a>
</g>
</g>
<!-- Node2 -->
<g id="node2" class="node"><title>Node2</title>
<g id="a_node2"><a xlink:href="class_human_dynamics_estimator.html" target="_top" xlink:title="HumanDynamicsEstimator">
<polygon fill="none" stroke="black" points="98,-38.5 98,-57.5 232,-57.5 232,-38.5 98,-38.5"/>
<text text-anchor="middle" x="165" y="-45.5" font-family="Helvetica,sans-Serif" font-size="10.00">HumanDynamicsEstimator</text>
</a>
</g>
</g>
<!-- Node1&#45;&gt;Node2 -->
<g id="edge1" class="edge"><title>Node1&#45;&gt;Node2</title>
<path fill="none" stroke="midnightblue" d="M72.1978,-34.786C80.3229,-35.9556 89.0671,-37.2142 97.8157,-38.4735"/>
<polygon fill="midnightblue" stroke="midnightblue" points="72.6801,-31.3195 62.2835,-33.359 71.6828,-38.2481 72.6801,-31.3195"/>
</g>
<!-- Node3 -->
<g id="node3" class="node"><title>Node3</title>
<g id="a_node3"><a xlink:href="class_human_forces_provider.html" target="_top" xlink:title="HumanForcesProvider">
<polygon fill="none" stroke="black" points="108,-0.5 108,-19.5 222,-19.5 222,-0.5 108,-0.5"/>
<text text-anchor="middle" x="165" y="-7.5" font-family="Helvetica,sans-Serif" font-size="10.00">HumanForcesProvider</text>
</a>
</g>
</g>
<!-- Node1&#45;&gt;Node3 -->
<g id="edge2" class="edge"><title>Node1&#45;&gt;Node3</title>
<path fill="none" stroke="midnightblue" d="M72.2365,-23.2084C83.4879,-21.5889 95.9243,-19.7988 107.914,-18.073"/>
<polygon fill="midnightblue" stroke="midnightblue" points="71.6828,-19.7519 62.2835,-24.641 72.6801,-26.6805 71.6828,-19.7519"/>
</g>
</g>
</svg>
