<?xml version="1.0" encoding="UTF-8" standalone="no"?>
<!DOCTYPE svg PUBLIC "-//W3C//DTD SVG 1.1//EN"
 "http://www.w3.org/Graphics/SVG/1.1/DTD/svg11.dtd">
<!-- Generated by graphviz version 2.36.0 (20140111.2315)
 -->
<!-- Title: Graphical Class Hierarchy Pages: 1 -->
<svg width="232pt" height="104pt"
 viewBox="0.00 0.00 232.00 104.00" xmlns="http://www.w3.org/2000/svg" xmlns:xlink="http://www.w3.org/1999/xlink">
<g id="graph0" class="graph" transform="scale(1 1) rotate(0) translate(4 100)">
<title>Graphical Class Hierarchy</title>
<!-- Node1 -->
<g id="node1" class="node"><title>Node1</title>
<g id="a_node1"><a xlink:href="classyarp_1_1os_1_1idl_1_1_wire_portable.html" target="_top" xlink:title="WirePortable">
<polygon fill="none" stroke="black" points="0.5,-38.5 0.5,-57.5 73.5,-57.5 73.5,-38.5 0.5,-38.5"/>
<text text-anchor="middle" x="37" y="-45.5" font-family="Helvetica,sans-Serif" font-size="10.00">WirePortable</text>
</a>
</g>
</g>
<!-- Node2 -->
<g id="node2" class="node"><title>Node2</title>
<g id="a_node2"><a xlink:href="classhuman_1_1_force6_d.html" target="_top" xlink:title="human::Force6D">
<polygon fill="none" stroke="black" points="122.5,-76.5 122.5,-95.5 211.5,-95.5 211.5,-76.5 122.5,-76.5"/>
<text text-anchor="middle" x="167" y="-83.5" font-family="Helvetica,sans-Serif" font-size="10.00">human::Force6D</text>
</a>
</g>
</g>
<!-- Node1&#45;&gt;Node2 -->
<g id="edge1" class="edge"><title>Node1&#45;&gt;Node2</title>
<path fill="none" stroke="midnightblue" d="M80.2242,-60.5353C97.6371,-65.7048 117.492,-71.5991 133.711,-76.4141"/>
<polygon fill="midnightblue" stroke="midnightblue" points="80.8824,-57.0798 70.2998,-57.589 78.8902,-63.7903 80.8824,-57.0798"/>
</g>
<!-- Node3 -->
<g id="node3" class="node"><title>Node3</title>
<g id="a_node3"><a xlink:href="classhuman_1_1_human_forces.html" target="_top" xlink:title="human::HumanForces">
<polygon fill="none" stroke="black" points="110.5,-38.5 110.5,-57.5 223.5,-57.5 223.5,-38.5 110.5,-38.5"/>
<text text-anchor="middle" x="167" y="-45.5" font-family="Helvetica,sans-Serif" font-size="10.00">human::HumanForces</text>
</a>
</g>
</g>
<!-- Node1&#45;&gt;Node3 -->
<g id="edge2" class="edge"><title>Node1&#45;&gt;Node3</title>
<path fill="none" stroke="midnightblue" d="M83.8637,-48C92.4648,-48 101.542,-48 110.401,-48"/>
<polygon fill="midnightblue" stroke="midnightblue" points="83.6552,-44.5001 73.6551,-48 83.6551,-51.5001 83.6552,-44.5001"/>
</g>
<!-- Node4 -->
<g id="node4" class="node"><title>Node4</title>
<g id="a_node4"><a xlink:href="classhuman_1_1_human_state.html" target="_top" xlink:title="human::HumanState">
<polygon fill="none" stroke="black" points="113.5,-0.5 113.5,-19.5 220.5,-19.5 220.5,-0.5 113.5,-0.5"/>
<text text-anchor="middle" x="167" y="-7.5" font-family="Helvetica,sans-Serif" font-size="10.00">human::HumanState</text>
</a>
</g>
</g>
<!-- Node1&#45;&gt;Node4 -->
<g id="edge3" class="edge"><title>Node1&#45;&gt;Node4</title>
<path fill="none" stroke="midnightblue" d="M80.2242,-35.4647C97.6371,-30.2952 117.492,-24.4009 133.711,-19.5859"/>
<polygon fill="midnightblue" stroke="midnightblue" points="78.8902,-32.2097 70.2998,-38.411 80.8824,-38.9202 78.8902,-32.2097"/>
</g>
</g>
</svg>
