<?xml version="1.0" encoding="UTF-8" standalone="no"?>
<!DOCTYPE svg PUBLIC "-//W3C//DTD SVG 1.1//EN"
 "http://www.w3.org/Graphics/SVG/1.1/DTD/svg11.dtd">
<!-- Generated by graphviz version 2.36.0 (20140111.2315)
 -->
<!-- Title: Graphical Class Hierarchy Pages: 1 -->
<svg width="228pt" height="126pt"
 viewBox="0.00 0.00 228.00 126.00" xmlns="http://www.w3.org/2000/svg" xmlns:xlink="http://www.w3.org/1999/xlink">
<g id="graph0" class="graph" transform="scale(1 1) rotate(0) translate(4 122)">
<title>Graphical Class Hierarchy</title>
<!-- Node1 -->
<g id="node1" class="node"><title>Node1</title>
<g id="a_node1"><a xlink:href="classyarp_1_1os_1_1_port_writer.html" target="_top" xlink:title="PortWriter">
<polygon fill="none" stroke="black" points="0.5,-73.5 0.5,-92.5 61.5,-92.5 61.5,-73.5 0.5,-73.5"/>
<text text-anchor="middle" x="31" y="-80.5" font-family="Helvetica,sans-Serif" font-size="10.00">PortWriter</text>
</a>
</g>
</g>
<!-- Node2 -->
<g id="node2" class="node"><title>Node2</title>
<g id="a_node2"><a xlink:href="classhuman_1_1_force6_d_1_1_editor.html" target="_top" xlink:title="human::Force6D::Editor">
<polygon fill="none" stroke="black" points="98.5,-98.5 98.5,-117.5 219.5,-117.5 219.5,-98.5 98.5,-98.5"/>
<text text-anchor="middle" x="159" y="-105.5" font-family="Helvetica,sans-Serif" font-size="10.00">human::Force6D::Editor</text>
</a>
</g>
</g>
<!-- Node1&#45;&gt;Node2 -->
<g id="edge1" class="edge"><title>Node1&#45;&gt;Node2</title>
<path fill="none" stroke="midnightblue" d="M71.4154,-90.8205C83.6148,-93.241 97.1931,-95.9351 109.911,-98.4586"/>
<polygon fill="midnightblue" stroke="midnightblue" points="72.0314,-87.3746 61.5414,-88.8614 70.669,-94.2407 72.0314,-87.3746"/>
</g>
<!-- Node3 -->
<g id="node3" class="node"><title>Node3</title>
<g id="a_node3"><a xlink:href="classhuman_1_1_human_forces_1_1_editor.html" target="_top" xlink:title="human::HumanForces\l::Editor">
<polygon fill="none" stroke="black" points="102.5,-49 102.5,-79 215.5,-79 215.5,-49 102.5,-49"/>
<text text-anchor="start" x="110.5" y="-67" font-family="Helvetica,sans-Serif" font-size="10.00">human::HumanForces</text>
<text text-anchor="middle" x="159" y="-56" font-family="Helvetica,sans-Serif" font-size="10.00">::Editor</text>
</a>
</g>
</g>
<!-- Node1&#45;&gt;Node3 -->
<g id="edge2" class="edge"><title>Node1&#45;&gt;Node3</title>
<path fill="none" stroke="midnightblue" d="M71.7262,-77.0095C81.4747,-75.5395 92.0882,-73.9391 102.431,-72.3795"/>
<polygon fill="midnightblue" stroke="midnightblue" points="70.9077,-73.5933 61.5414,-78.5453 71.9515,-80.5151 70.9077,-73.5933"/>
</g>
<!-- Node4 -->
<g id="node4" class="node"><title>Node4</title>
<g id="a_node4"><a xlink:href="classhuman_1_1_human_state_1_1_editor.html" target="_top" xlink:title="human::HumanState::\lEditor">
<polygon fill="none" stroke="black" points="102.5,-0 102.5,-30 215.5,-30 215.5,-0 102.5,-0"/>
<text text-anchor="start" x="110.5" y="-18" font-family="Helvetica,sans-Serif" font-size="10.00">human::HumanState::</text>
<text text-anchor="middle" x="159" y="-7" font-family="Helvetica,sans-Serif" font-size="10.00">Editor</text>
</a>
</g>
</g>
<!-- Node1&#45;&gt;Node4 -->
<g id="edge3" class="edge"><title>Node1&#45;&gt;Node4</title>
<path fill="none" stroke="midnightblue" d="M56.0411,-67.8439C58.0606,-66.5495 60.068,-65.2556 62,-64 78.1239,-53.5215 81.0457,-49.0736 98,-40 104.567,-36.4856 111.735,-33.1217 118.759,-30.0642"/>
<polygon fill="midnightblue" stroke="midnightblue" points="53.8632,-65.0812 47.3059,-73.4031 57.6216,-70.9867 53.8632,-65.0812"/>
</g>
<!-- Node5 -->
<g id="node5" class="node"><title>Node5</title>
<g id="a_node5"><a xlink:href="classyarp_1_1os_1_1_wire.html" target="_top" xlink:title="Wire">
<polygon fill="none" stroke="black" points="12.5,-35.5 12.5,-54.5 49.5,-54.5 49.5,-35.5 12.5,-35.5"/>
<text text-anchor="middle" x="31" y="-42.5" font-family="Helvetica,sans-Serif" font-size="10.00">Wire</text>
</a>
</g>
</g>
<!-- Node5&#45;&gt;Node2 -->
<g id="edge4" class="edge"><title>Node5&#45;&gt;Node2</title>
<path fill="none" stroke="midnightblue" d="M56.0411,-60.1561C58.0606,-61.4505 60.068,-62.7444 62,-64 78.1239,-74.4785 80.7258,-79.5514 98,-88 106.187,-92.004 115.372,-95.5141 124.048,-98.4295"/>
<polygon fill="midnightblue" stroke="midnightblue" points="57.6216,-57.0133 47.3059,-54.5969 53.8632,-62.9188 57.6216,-57.0133"/>
</g>
<!-- Node5&#45;&gt;Node3 -->
<g id="edge5" class="edge"><title>Node5&#45;&gt;Node3</title>
<path fill="none" stroke="midnightblue" d="M59.7717,-49.1878C72.3399,-51.083 87.6648,-53.3939 102.437,-55.6214"/>
<polygon fill="midnightblue" stroke="midnightblue" points="59.9299,-45.6722 49.5198,-47.6419 58.8861,-52.5939 59.9299,-45.6722"/>
</g>
<!-- Node5&#45;&gt;Node4 -->
<g id="edge6" class="edge"><title>Node5&#45;&gt;Node4</title>
<path fill="none" stroke="midnightblue" d="M59.3917,-38.4782C72.0302,-35.469 87.5156,-31.782 102.437,-28.2294"/>
<polygon fill="midnightblue" stroke="midnightblue" points="58.4371,-35.1075 49.5198,-40.8286 60.0585,-41.9172 58.4371,-35.1075"/>
</g>
</g>
</svg>
